<svg width="170" height="66" viewBox="0 0 170 66" fill="none" xmlns="http://www.w3.org/2000/svg">
<g opacity="0.78">
<path d="M42.6667 43.6667C48.5577 43.6667 53.3333 38.8911 53.3333 33C53.3333 27.109 48.5577 22.3334 42.6667 22.3334C36.7756 22.3334 32 27.109 32 33C32 38.8911 36.7756 43.6667 42.6667 43.6667Z" fill="#19BCFE"/>
<path fill-rule="evenodd" clip-rule="evenodd" d="M21.3334 65C24.1624 65 26.8755 63.8761 28.8759 61.8758C30.8762 59.8754 32 57.1623 32 54.3333V43.6666H21.3334C18.5044 43.6666 15.7913 44.7904 13.7909 46.7908C11.7905 48.7912 10.6667 51.5043 10.6667 54.3333C10.6667 57.1623 11.7905 59.8754 13.7909 61.8758C15.7913 63.8761 18.5044 65 21.3334 65Z" fill="#09CF83"/>
<path fill-rule="evenodd" clip-rule="evenodd" d="M21.3334 43.6667H32V22.3334H21.3334C18.5044 22.3334 15.7913 23.4572 13.7909 25.4576C11.7905 27.458 10.6667 30.1711 10.6667 33C10.6667 35.829 11.7905 38.5421 13.7909 40.5425C15.7913 42.5429 18.5044 43.6667 21.3334 43.6667Z" fill="#A259FF"/>
<path fill-rule="evenodd" clip-rule="evenodd" d="M21.3334 22.3333H32V1H21.3334C18.5044 1 15.7913 2.12381 13.7909 4.12419C11.7905 6.12458 10.6667 8.83769 10.6667 11.6667C10.6667 14.4956 11.7905 17.2088 13.7909 19.2091C15.7913 21.2095 18.5044 22.3333 21.3334 22.3333Z" fill="#F24E1E"/>
<path fill-rule="evenodd" clip-rule="evenodd" d="M42.6667 22.3333H32V1H42.6667C45.4956 1 48.2087 2.12381 50.2091 4.12419C52.2095 6.12458 53.3333 8.83769 53.3333 11.6667C53.3333 14.4956 52.2095 17.2088 50.2091 19.2091C48.2087 21.2095 45.4956 22.3333 42.6667 22.3333Z" fill="#FF7262"/>
</g>
<path d="M105.616 9.32V11.552H98.536V16.472H104.056V18.704H98.536V26H95.8V9.32H105.616ZM110.888 9.32V26H108.152V9.32H110.888ZM126.552 14.12C126.12 13.288 125.52 12.664 124.752 12.248C123.984 11.816 123.096 11.6 122.088 11.6C120.984 11.6 120 11.848 119.136 12.344C118.272 12.84 117.592 13.544 117.096 14.456C116.616 15.368 116.376 16.424 116.376 17.624C116.376 18.824 116.616 19.888 117.096 20.816C117.592 21.728 118.272 22.432 119.136 22.928C120 23.424 120.984 23.672 122.088 23.672C123.576 23.672 124.784 23.256 125.712 22.424C126.64 21.592 127.208 20.464 127.416 19.04H121.152V16.856H130.344V18.992C130.168 20.288 129.704 21.48 128.952 22.568C128.216 23.656 127.248 24.528 126.048 25.184C124.864 25.824 123.544 26.144 122.088 26.144C120.52 26.144 119.088 25.784 117.792 25.064C116.496 24.328 115.464 23.312 114.696 22.016C113.944 20.72 113.568 19.256 113.568 17.624C113.568 15.992 113.944 14.528 114.696 13.232C115.464 11.936 116.496 10.928 117.792 10.208C119.104 9.472 120.536 9.104 122.088 9.104C123.864 9.104 125.44 9.544 126.816 10.424C128.208 11.288 129.216 12.52 129.84 14.12H126.552ZM150.61 9.32V26H147.874V14.576L142.786 26H140.89L135.778 14.576V26H133.042V9.32H135.994L141.85 22.4L147.682 9.32H150.61ZM164.262 22.592H157.278L156.078 26H153.222L159.198 9.296H162.366L168.342 26H165.462L164.262 22.592ZM163.494 20.36L160.782 12.608L158.046 20.36H163.494Z" fill="white" fill-opacity="0.78"/>
<path d="M102.478 46.454V47.786H97.024V52.016H101.452V53.348H97.024V59H95.386V46.454H102.478ZM106.094 50.738C106.382 50.174 106.79 49.736 107.318 49.424C107.858 49.112 108.512 48.956 109.28 48.956V50.648H108.848C107.012 50.648 106.094 51.644 106.094 53.636V59H104.456V49.136H106.094V50.738ZM120.171 53.69C120.171 54.002 120.153 54.332 120.117 54.68H112.233C112.293 55.652 112.623 56.414 113.223 56.966C113.835 57.506 114.573 57.776 115.437 57.776C116.145 57.776 116.733 57.614 117.201 57.29C117.681 56.954 118.017 56.51 118.209 55.958H119.973C119.709 56.906 119.181 57.68 118.389 58.28C117.597 58.868 116.613 59.162 115.437 59.162C114.501 59.162 113.661 58.952 112.917 58.532C112.185 58.112 111.609 57.518 111.189 56.75C110.769 55.97 110.559 55.07 110.559 54.05C110.559 53.03 110.763 52.136 111.171 51.368C111.579 50.6 112.149 50.012 112.881 49.604C113.625 49.184 114.477 48.974 115.437 48.974C116.373 48.974 117.201 49.178 117.921 49.586C118.641 49.994 119.193 50.558 119.577 51.278C119.973 51.986 120.171 52.79 120.171 53.69ZM118.479 53.348C118.479 52.724 118.341 52.19 118.065 51.746C117.789 51.29 117.411 50.948 116.931 50.72C116.463 50.48 115.941 50.36 115.365 50.36C114.537 50.36 113.829 50.624 113.241 51.152C112.665 51.68 112.335 52.412 112.251 53.348H118.479ZM131.333 53.69C131.333 54.002 131.315 54.332 131.279 54.68H123.395C123.455 55.652 123.785 56.414 124.385 56.966C124.997 57.506 125.735 57.776 126.599 57.776C127.307 57.776 127.895 57.614 128.363 57.29C128.843 56.954 129.179 56.51 129.371 55.958H131.135C130.871 56.906 130.343 57.68 129.551 58.28C128.759 58.868 127.775 59.162 126.599 59.162C125.663 59.162 124.823 58.952 124.079 58.532C123.347 58.112 122.771 57.518 122.351 56.75C121.931 55.97 121.721 55.07 121.721 54.05C121.721 53.03 121.925 52.136 122.333 51.368C122.741 50.6 123.311 50.012 124.043 49.604C124.787 49.184 125.639 48.974 126.599 48.974C127.535 48.974 128.363 49.178 129.083 49.586C129.803 49.994 130.355 50.558 130.739 51.278C131.135 51.986 131.333 52.79 131.333 53.69ZM129.641 53.348C129.641 52.724 129.503 52.19 129.227 51.746C128.951 51.29 128.573 50.948 128.093 50.72C127.625 50.48 127.103 50.36 126.527 50.36C125.699 50.36 124.991 50.624 124.403 51.152C123.827 51.68 123.497 52.412 123.413 53.348H129.641Z" fill="#FFA537" fill-opacity="0.55"/>
</svg>
