<svg width="195" height="66" viewBox="0 0 195 66" fill="none" xmlns="http://www.w3.org/2000/svg">
<g opacity="0.78">
<path fill-rule="evenodd" clip-rule="evenodd" d="M11.432 59.4356L4.55327 50.8663C2.89826 48.8045 2 46.2692 2 43.6597V12.63C2 8.72128 5.12717 5.47794 9.16143 5.2025L41.0643 3.02437C43.382 2.86612 45.6856 3.48218 47.5895 4.76941L58.7985 12.3478C60.8049 13.7044 62 15.922 62 18.2885V53.5663C62 57.3915 58.9251 60.5586 54.9752 60.8017L19.5667 62.9813C16.4147 63.1754 13.368 61.8474 11.432 59.4356Z" fill="white"/>
<path d="M22.4963 28.1574V27.7512C22.4963 26.7214 23.3211 25.8673 24.384 25.7964L32.1267 25.2794L42.8342 41.047V27.2083L40.0781 26.8409V26.6479C40.0781 25.6061 40.9218 24.7464 41.9983 24.6912L49.0433 24.3303V25.3442C49.0433 25.8201 48.6894 26.2272 48.2043 26.3092L46.509 26.596V49.0074L44.3813 49.7391C42.6038 50.3504 40.6249 49.696 39.6073 48.1605L29.2122 32.4744V47.4459L32.4118 48.0583L32.3672 48.355C32.2276 49.2847 31.425 49.9877 30.4541 50.0309L22.4963 50.3851C22.3911 49.3855 23.1403 48.4911 24.1739 48.3825L25.2207 48.2726V28.3105L22.4963 28.1574Z" fill="black"/>
<path fill-rule="evenodd" clip-rule="evenodd" d="M41.3499 6.93356L9.44706 9.1117C7.5361 9.24217 6.05481 10.7785 6.05481 12.63V43.6598C6.05481 45.3994 6.65365 47.0896 7.75699 48.4641L14.6357 57.0334C15.7479 58.4189 17.4981 59.1818 19.3088 59.0703L54.7174 56.8907C56.5322 56.779 57.945 55.3239 57.945 53.5663V18.2885C57.945 17.2012 57.3959 16.1823 56.474 15.559L45.265 7.98059C44.1227 7.20825 42.7405 6.83862 41.3499 6.93356ZM11.0291 13.114C10.5853 12.7855 10.7965 12.1011 11.3539 12.0611L41.5645 9.89422C42.5271 9.82518 43.4835 10.0902 44.262 10.6418L50.3235 14.9363C50.5536 15.0993 50.4457 15.4513 50.1608 15.4668L18.1679 17.2067C17.1997 17.2594 16.244 16.9749 15.4741 16.405L11.0291 13.114ZM16.6673 22.6614C16.6673 21.6221 17.5069 20.7635 18.5807 20.7051L52.4062 18.8629C53.4527 18.8059 54.3336 19.6107 54.3336 20.6236V51.1705C54.3336 52.208 53.4969 53.0656 52.4253 53.1266L18.8139 55.0391C17.6493 55.1053 16.6673 54.2104 16.6673 53.083V22.6614Z" fill="black"/>
</g>
<path d="M109.504 26H106.768L98.536 13.544V26H95.8V9.296H98.536L106.768 21.728V9.296H109.504V26ZM118.833 26.216C117.585 26.216 116.457 25.936 115.449 25.376C114.441 24.8 113.649 24 113.073 22.976C112.497 21.936 112.209 20.736 112.209 19.376C112.209 18.032 112.505 16.84 113.097 15.8C113.689 14.76 114.497 13.96 115.521 13.4C116.545 12.84 117.689 12.56 118.953 12.56C120.217 12.56 121.361 12.84 122.385 13.4C123.409 13.96 124.217 14.76 124.809 15.8C125.401 16.84 125.697 18.032 125.697 19.376C125.697 20.72 125.393 21.912 124.785 22.952C124.177 23.992 123.345 24.8 122.289 25.376C121.249 25.936 120.097 26.216 118.833 26.216ZM118.833 23.84C119.537 23.84 120.193 23.672 120.801 23.336C121.425 23 121.929 22.496 122.313 21.824C122.697 21.152 122.889 20.336 122.889 19.376C122.889 18.416 122.705 17.608 122.337 16.952C121.969 16.28 121.481 15.776 120.873 15.44C120.265 15.104 119.609 14.936 118.905 14.936C118.201 14.936 117.545 15.104 116.937 15.44C116.345 15.776 115.873 16.28 115.521 16.952C115.169 17.608 114.993 18.416 114.993 19.376C114.993 20.8 115.353 21.904 116.073 22.688C116.809 23.456 117.729 23.84 118.833 23.84ZM131.594 15.008V22.328C131.594 22.824 131.706 23.184 131.93 23.408C132.17 23.616 132.57 23.72 133.13 23.72H134.81V26H132.65C131.418 26 130.474 25.712 129.818 25.136C129.162 24.56 128.834 23.624 128.834 22.328V15.008H127.274V12.776H128.834V9.488H131.594V12.776H134.81V15.008H131.594ZM138.723 11.024C138.227 11.024 137.811 10.856 137.475 10.52C137.139 10.184 136.971 9.768 136.971 9.272C136.971 8.776 137.139 8.36 137.475 8.024C137.811 7.688 138.227 7.52 138.723 7.52C139.203 7.52 139.611 7.688 139.947 8.024C140.283 8.36 140.451 8.776 140.451 9.272C140.451 9.768 140.283 10.184 139.947 10.52C139.611 10.856 139.203 11.024 138.723 11.024ZM140.067 12.776V26H137.331V12.776H140.067ZM149.395 26.216C148.147 26.216 147.019 25.936 146.011 25.376C145.003 24.8 144.211 24 143.635 22.976C143.059 21.936 142.771 20.736 142.771 19.376C142.771 18.032 143.067 16.84 143.659 15.8C144.251 14.76 145.059 13.96 146.083 13.4C147.107 12.84 148.251 12.56 149.515 12.56C150.779 12.56 151.923 12.84 152.947 13.4C153.971 13.96 154.779 14.76 155.371 15.8C155.963 16.84 156.259 18.032 156.259 19.376C156.259 20.72 155.955 21.912 155.347 22.952C154.739 23.992 153.907 24.8 152.851 25.376C151.811 25.936 150.659 26.216 149.395 26.216ZM149.395 23.84C150.099 23.84 150.755 23.672 151.363 23.336C151.987 23 152.491 22.496 152.875 21.824C153.259 21.152 153.451 20.336 153.451 19.376C153.451 18.416 153.267 17.608 152.899 16.952C152.531 16.28 152.043 15.776 151.435 15.44C150.827 15.104 150.171 14.936 149.467 14.936C148.763 14.936 148.107 15.104 147.499 15.44C146.907 15.776 146.435 16.28 146.083 16.952C145.731 17.608 145.555 18.416 145.555 19.376C145.555 20.8 145.915 21.904 146.635 22.688C147.371 23.456 148.291 23.84 149.395 23.84ZM165.636 12.56C166.676 12.56 167.604 12.776 168.42 13.208C169.252 13.64 169.9 14.28 170.364 15.128C170.828 15.976 171.06 17 171.06 18.2V26H168.348V18.608C168.348 17.424 168.052 16.52 167.46 15.896C166.868 15.256 166.06 14.936 165.036 14.936C164.012 14.936 163.196 15.256 162.588 15.896C161.996 16.52 161.7 17.424 161.7 18.608V26H158.964V12.776H161.7V14.288C162.148 13.744 162.716 13.32 163.404 13.016C164.108 12.712 164.852 12.56 165.636 12.56Z" fill="white" fill-opacity="0.78"/>
<path d="M102.478 46.454V47.786H97.024V52.016H101.452V53.348H97.024V59H95.386V46.454H102.478ZM106.094 50.738C106.382 50.174 106.79 49.736 107.318 49.424C107.858 49.112 108.512 48.956 109.28 48.956V50.648H108.848C107.012 50.648 106.094 51.644 106.094 53.636V59H104.456V49.136H106.094V50.738ZM120.171 53.69C120.171 54.002 120.153 54.332 120.117 54.68H112.233C112.293 55.652 112.623 56.414 113.223 56.966C113.835 57.506 114.573 57.776 115.437 57.776C116.145 57.776 116.733 57.614 117.201 57.29C117.681 56.954 118.017 56.51 118.209 55.958H119.973C119.709 56.906 119.181 57.68 118.389 58.28C117.597 58.868 116.613 59.162 115.437 59.162C114.501 59.162 113.661 58.952 112.917 58.532C112.185 58.112 111.609 57.518 111.189 56.75C110.769 55.97 110.559 55.07 110.559 54.05C110.559 53.03 110.763 52.136 111.171 51.368C111.579 50.6 112.149 50.012 112.881 49.604C113.625 49.184 114.477 48.974 115.437 48.974C116.373 48.974 117.201 49.178 117.921 49.586C118.641 49.994 119.193 50.558 119.577 51.278C119.973 51.986 120.171 52.79 120.171 53.69ZM118.479 53.348C118.479 52.724 118.341 52.19 118.065 51.746C117.789 51.29 117.411 50.948 116.931 50.72C116.463 50.48 115.941 50.36 115.365 50.36C114.537 50.36 113.829 50.624 113.241 51.152C112.665 51.68 112.335 52.412 112.251 53.348H118.479ZM131.333 53.69C131.333 54.002 131.315 54.332 131.279 54.68H123.395C123.455 55.652 123.785 56.414 124.385 56.966C124.997 57.506 125.735 57.776 126.599 57.776C127.307 57.776 127.895 57.614 128.363 57.29C128.843 56.954 129.179 56.51 129.371 55.958H131.135C130.871 56.906 130.343 57.68 129.551 58.28C128.759 58.868 127.775 59.162 126.599 59.162C125.663 59.162 124.823 58.952 124.079 58.532C123.347 58.112 122.771 57.518 122.351 56.75C121.931 55.97 121.721 55.07 121.721 54.05C121.721 53.03 121.925 52.136 122.333 51.368C122.741 50.6 123.311 50.012 124.043 49.604C124.787 49.184 125.639 48.974 126.599 48.974C127.535 48.974 128.363 49.178 129.083 49.586C129.803 49.994 130.355 50.558 130.739 51.278C131.135 51.986 131.333 52.79 131.333 53.69ZM129.641 53.348C129.641 52.724 129.503 52.19 129.227 51.746C128.951 51.29 128.573 50.948 128.093 50.72C127.625 50.48 127.103 50.36 126.527 50.36C125.699 50.36 124.991 50.624 124.403 51.152C123.827 51.68 123.497 52.412 123.413 53.348H129.641ZM147.924 59L146.286 57.344C145.674 57.98 145.02 58.454 144.324 58.766C143.628 59.066 142.842 59.216 141.966 59.216C141.102 59.216 140.334 59.06 139.662 58.748C139.002 58.436 138.486 57.992 138.114 57.416C137.754 56.84 137.574 56.168 137.574 55.4C137.574 54.524 137.82 53.756 138.312 53.096C138.816 52.424 139.554 51.896 140.526 51.512C140.142 51.056 139.866 50.636 139.698 50.252C139.53 49.868 139.446 49.448 139.446 48.992C139.446 48.464 139.578 47.99 139.842 47.57C140.118 47.138 140.508 46.802 141.012 46.562C141.516 46.322 142.098 46.202 142.758 46.202C143.406 46.202 143.97 46.328 144.45 46.58C144.93 46.832 145.29 47.186 145.53 47.642C145.77 48.086 145.878 48.584 145.854 49.136H144.216C144.228 48.644 144.09 48.26 143.802 47.984C143.514 47.696 143.142 47.552 142.686 47.552C142.206 47.552 141.816 47.69 141.516 47.966C141.228 48.23 141.084 48.572 141.084 48.992C141.084 49.352 141.18 49.7 141.372 50.036C141.576 50.372 141.912 50.786 142.38 51.278L146.124 55.04L146.448 54.536L147.672 52.484H149.436L147.96 55.04C147.756 55.4 147.516 55.778 147.24 56.174L150.066 59H147.924ZM141.966 57.812C142.614 57.812 143.196 57.686 143.712 57.434C144.24 57.182 144.738 56.792 145.206 56.264L141.516 52.556C139.98 53.144 139.212 54.074 139.212 55.346C139.212 56.054 139.464 56.642 139.968 57.11C140.484 57.578 141.15 57.812 141.966 57.812ZM164.788 50.126C164.788 51.17 164.428 52.04 163.708 52.736C163 53.42 161.914 53.762 160.45 53.762H158.038V59H156.4V46.454H160.45C161.866 46.454 162.94 46.796 163.672 47.48C164.416 48.164 164.788 49.046 164.788 50.126ZM160.45 52.412C161.362 52.412 162.034 52.214 162.466 51.818C162.898 51.422 163.114 50.858 163.114 50.126C163.114 48.578 162.226 47.804 160.45 47.804H158.038V52.412H160.45ZM166.212 54.032C166.212 53.024 166.416 52.142 166.824 51.386C167.232 50.618 167.79 50.024 168.498 49.604C169.218 49.184 170.016 48.974 170.892 48.974C171.756 48.974 172.506 49.16 173.142 49.532C173.778 49.904 174.252 50.372 174.564 50.936V49.136H176.22V59H174.564V57.164C174.24 57.74 173.754 58.22 173.106 58.604C172.47 58.976 171.726 59.162 170.874 59.162C169.998 59.162 169.206 58.946 168.498 58.514C167.79 58.082 167.232 57.476 166.824 56.696C166.416 55.916 166.212 55.028 166.212 54.032ZM174.564 54.05C174.564 53.306 174.414 52.658 174.114 52.106C173.814 51.554 173.406 51.134 172.89 50.846C172.386 50.546 171.828 50.396 171.216 50.396C170.604 50.396 170.046 50.54 169.542 50.828C169.038 51.116 168.636 51.536 168.336 52.088C168.036 52.64 167.886 53.288 167.886 54.032C167.886 54.788 168.036 55.448 168.336 56.012C168.636 56.564 169.038 56.99 169.542 57.29C170.046 57.578 170.604 57.722 171.216 57.722C171.828 57.722 172.386 57.578 172.89 57.29C173.406 56.99 173.814 56.564 174.114 56.012C174.414 55.448 174.564 54.794 174.564 54.05ZM179.834 47.534C179.522 47.534 179.258 47.426 179.042 47.21C178.826 46.994 178.718 46.73 178.718 46.418C178.718 46.106 178.826 45.842 179.042 45.626C179.258 45.41 179.522 45.302 179.834 45.302C180.134 45.302 180.386 45.41 180.59 45.626C180.806 45.842 180.914 46.106 180.914 46.418C180.914 46.73 180.806 46.994 180.59 47.21C180.386 47.426 180.134 47.534 179.834 47.534ZM180.626 49.136V59H178.988V49.136H180.626ZM182.805 54.032C182.805 53.024 183.009 52.142 183.417 51.386C183.825 50.618 184.383 50.024 185.091 49.604C185.811 49.184 186.615 48.974 187.503 48.974C188.271 48.974 188.985 49.154 189.645 49.514C190.305 49.862 190.809 50.324 191.157 50.9V45.68H192.813V59H191.157V57.146C190.833 57.734 190.353 58.22 189.717 58.604C189.081 58.976 188.337 59.162 187.485 59.162C186.609 59.162 185.811 58.946 185.091 58.514C184.383 58.082 183.825 57.476 183.417 56.696C183.009 55.916 182.805 55.028 182.805 54.032ZM191.157 54.05C191.157 53.306 191.007 52.658 190.707 52.106C190.407 51.554 189.999 51.134 189.483 50.846C188.979 50.546 188.421 50.396 187.809 50.396C187.197 50.396 186.639 50.54 186.135 50.828C185.631 51.116 185.229 51.536 184.929 52.088C184.629 52.64 184.479 53.288 184.479 54.032C184.479 54.788 184.629 55.448 184.929 56.012C185.229 56.564 185.631 56.99 186.135 57.29C186.639 57.578 187.197 57.722 187.809 57.722C188.421 57.722 188.979 57.578 189.483 57.29C189.999 56.99 190.407 56.564 190.707 56.012C191.007 55.448 191.157 54.794 191.157 54.05Z" fill="#FFA537" fill-opacity="0.55"/>
</svg>
