<svg width="324" height="66" viewBox="0 0 324 66" fill="none" xmlns="http://www.w3.org/2000/svg">
<g opacity="0.78">
<mask id="mask0_17_100" style="mask-type:alpha" maskUnits="userSpaceOnUse" x="0" y="2" width="65" height="63">
<path d="M45.9135 64.497C46.4286 64.6927 46.9797 64.7831 47.5322 64.7624C48.0848 64.7417 48.6271 64.6104 49.1254 64.3767L62.4557 58.1267C63.1422 57.8046 63.7215 57.3002 64.1269 56.6715C64.5323 56.0429 64.7473 55.3154 64.7472 54.573V12.1931C64.7473 11.4507 64.5323 10.7233 64.1269 10.0946C63.7215 9.46599 63.1422 8.96164 62.4557 8.63958L49.1256 2.38933C48.3724 2.03616 47.5251 1.91988 46.7011 2.05657C45.877 2.19327 45.117 2.5762 44.5261 3.15234L19.0068 25.8383L7.89074 17.6165C7.38932 17.2456 6.77047 17.0575 6.14158 17.0847C5.51268 17.112 4.91342 17.3529 4.44777 17.7657L0.882669 20.9258C-0.292917 21.9677 -0.294186 23.7698 0.879622 24.8133L10.5197 33.383L0.879622 41.9525C-0.294186 42.9963 -0.292917 44.7981 0.882669 45.8402L4.44777 49.0001C4.91339 49.4129 5.51264 49.6539 6.14153 49.6812C6.77043 49.7085 7.38929 49.5204 7.89074 49.1495L19.0068 40.9275L44.5261 63.6135C44.9207 63.9985 45.3931 64.2994 45.9135 64.497ZM48.5703 19.0609L29.2069 33.383L48.5703 47.7049V19.0609Z" fill="white"/>
</mask>
<g mask="url(#mask0_17_100)">
<path d="M62.4953 8.64928L49.1545 2.39037C48.4011 2.03692 47.5535 1.92038 46.7291 2.0569C45.9048 2.19342 45.1443 2.57624 44.553 3.15239L0.880099 41.9525C-0.294472 42.9963 -0.292948 44.7982 0.883145 45.8403L4.45053 49.0002C4.91657 49.4131 5.51619 49.654 6.14545 49.6813C6.77471 49.7086 7.39394 49.5205 7.89578 49.1496L60.4879 10.273C62.2523 8.96893 64.7865 10.1951 64.7865 12.353V12.202C64.7865 11.4598 64.5715 10.7325 64.1661 10.104C63.7608 9.47554 63.1817 8.97129 62.4953 8.64928Z" fill="#0065A9"/>
<path d="M62.4953 58.1159L49.1545 64.3749C48.4011 64.7282 47.5535 64.8447 46.7292 64.7082C45.9048 64.5717 45.1443 64.1889 44.553 63.6128L0.880099 24.8127C-0.294472 23.7691 -0.292948 21.967 0.883145 20.9252L4.45053 17.7651C4.9166 17.3522 5.51624 17.1113 6.1455 17.084C6.77476 17.0568 7.39397 17.2449 7.89578 17.6159L60.4879 56.4922C62.2523 57.7963 64.7865 56.5701 64.7865 54.412V54.5632C64.7865 55.3055 64.5714 56.0327 64.1661 56.6612C63.7608 57.2897 63.1816 57.7939 62.4953 58.1159Z" fill="#007ACC"/>
<path d="M49.1127 64.3798C48.359 64.733 47.5114 64.8493 46.687 64.7127C45.8625 64.5761 45.102 64.1932 44.5106 63.617C46.0038 65.0718 48.5574 64.0413 48.5574 61.9834V4.78904C48.5574 2.73111 46.0038 1.70066 44.5106 3.15566C45.102 2.57947 45.8625 2.19655 46.6869 2.05986C47.5114 1.92317 48.359 2.03947 49.1127 2.39266L62.4511 8.64291C63.1379 8.96474 63.7175 9.46901 64.1231 10.0977C64.5287 10.7263 64.7439 11.4538 64.7439 12.1964V54.5765C64.7439 56.0919 63.8527 57.4734 62.4511 58.13L49.1127 64.38V64.3798Z" fill="#1F9CF0"/>
<path d="M45.9135 64.4964C46.4287 64.6921 46.9797 64.7824 47.5322 64.7618C48.0848 64.7411 48.6271 64.6098 49.1254 64.3762L62.4554 58.1259C63.142 57.8039 63.7214 57.2996 64.1268 56.6709C64.5322 56.0423 64.7473 55.3149 64.7472 54.5724V12.1925C64.7473 11.4501 64.5323 10.7227 64.1269 10.0941C63.7215 9.46543 63.1422 8.96107 62.4557 8.63902L49.1251 2.38852C48.3719 2.0354 47.5247 1.91915 46.7007 2.05585C45.8767 2.19255 45.1167 2.57544 44.5259 3.15152L19.0068 25.8378L7.89074 17.6159C7.38932 17.2451 6.77047 17.0569 6.14158 17.0842C5.51268 17.1114 4.91342 17.3523 4.44777 17.7651L0.882669 20.9253C-0.292917 21.9671 -0.294186 23.7692 0.879622 24.8128L10.5197 33.3825L0.879622 41.9519C-0.294186 42.9957 -0.292917 44.7976 0.882669 45.8397L4.44777 48.9995C4.91339 49.4124 5.51264 49.6533 6.14153 49.6806C6.77043 49.7079 7.38929 49.5198 7.89074 49.149L19.0068 40.9269L44.5259 63.6129C44.9205 63.998 45.393 64.2989 45.9135 64.4964ZM48.5703 19.0601L29.2069 33.3825L48.5703 47.7044V19.0603V19.0601Z" fill="url(#paint0_linear_17_100)" fill-opacity="0.25"/>
</g>
</g>
<path d="M110.94 9.32L104.676 26H101.508L95.2198 9.32H98.1478L103.092 23.192L108.06 9.32H110.94ZM114.62 11.024C114.124 11.024 113.708 10.856 113.372 10.52C113.036 10.184 112.868 9.768 112.868 9.272C112.868 8.776 113.036 8.36 113.372 8.024C113.708 7.688 114.124 7.52 114.62 7.52C115.1 7.52 115.508 7.688 115.844 8.024C116.18 8.36 116.348 8.776 116.348 9.272C116.348 9.768 116.18 10.184 115.844 10.52C115.508 10.856 115.1 11.024 114.62 11.024ZM115.964 12.776V26H113.228V12.776H115.964ZM124.356 26.216C123.316 26.216 122.38 26.032 121.548 25.664C120.732 25.28 120.084 24.768 119.604 24.128C119.124 23.472 118.868 22.744 118.836 21.944H121.668C121.716 22.504 121.98 22.976 122.46 23.36C122.956 23.728 123.572 23.912 124.308 23.912C125.076 23.912 125.668 23.768 126.084 23.48C126.516 23.176 126.732 22.792 126.732 22.328C126.732 21.832 126.492 21.464 126.012 21.224C125.548 20.984 124.804 20.72 123.78 20.432C122.788 20.16 121.98 19.896 121.356 19.64C120.732 19.384 120.188 18.992 119.724 18.464C119.276 17.936 119.052 17.24 119.052 16.376C119.052 15.672 119.26 15.032 119.676 14.456C120.092 13.864 120.684 13.4 121.452 13.064C122.236 12.728 123.132 12.56 124.14 12.56C125.644 12.56 126.852 12.944 127.764 13.712C128.692 14.464 129.188 15.496 129.252 16.808H126.516C126.468 16.216 126.228 15.744 125.796 15.392C125.364 15.04 124.78 14.864 124.044 14.864C123.324 14.864 122.772 15 122.388 15.272C122.004 15.544 121.812 15.904 121.812 16.352C121.812 16.704 121.94 17 122.196 17.24C122.452 17.48 122.764 17.672 123.132 17.816C123.5 17.944 124.044 18.112 124.764 18.32C125.724 18.576 126.508 18.84 127.116 19.112C127.74 19.368 128.276 19.752 128.724 20.264C129.172 20.776 129.404 21.456 129.42 22.304C129.42 23.056 129.212 23.728 128.796 24.32C128.38 24.912 127.788 25.376 127.02 25.712C126.268 26.048 125.38 26.216 124.356 26.216ZM144.352 12.776V26H141.616V24.44C141.184 24.984 140.616 25.416 139.912 25.736C139.224 26.04 138.488 26.192 137.704 26.192C136.664 26.192 135.728 25.976 134.896 25.544C134.08 25.112 133.432 24.472 132.952 23.624C132.488 22.776 132.256 21.752 132.256 20.552V12.776H134.968V20.144C134.968 21.328 135.264 22.24 135.856 22.88C136.448 23.504 137.256 23.816 138.28 23.816C139.304 23.816 140.112 23.504 140.704 22.88C141.312 22.24 141.616 21.328 141.616 20.144V12.776H144.352ZM147.05 19.328C147.05 18 147.322 16.824 147.866 15.8C148.426 14.776 149.178 13.984 150.122 13.424C151.082 12.848 152.138 12.56 153.29 12.56C154.33 12.56 155.234 12.768 156.002 13.184C156.786 13.584 157.41 14.088 157.874 14.696V12.776H160.634V26H157.874V24.032C157.41 24.656 156.778 25.176 155.978 25.592C155.178 26.008 154.266 26.216 153.242 26.216C152.106 26.216 151.066 25.928 150.122 25.352C149.178 24.76 148.426 23.944 147.866 22.904C147.322 21.848 147.05 20.656 147.05 19.328ZM157.874 19.376C157.874 18.464 157.682 17.672 157.298 17C156.93 16.328 156.442 15.816 155.834 15.464C155.226 15.112 154.57 14.936 153.866 14.936C153.162 14.936 152.506 15.112 151.898 15.464C151.29 15.8 150.794 16.304 150.41 16.976C150.042 17.632 149.858 18.416 149.858 19.328C149.858 20.24 150.042 21.04 150.41 21.728C150.794 22.416 151.29 22.944 151.898 23.312C152.522 23.664 153.178 23.84 153.866 23.84C154.57 23.84 155.226 23.664 155.834 23.312C156.442 22.96 156.93 22.448 157.298 21.776C157.682 21.088 157.874 20.288 157.874 19.376ZM166.964 8.24V26H164.228V8.24H166.964ZM182.286 26.168C181.166 26.168 180.158 25.976 179.262 25.592C178.366 25.192 177.662 24.632 177.15 23.912C176.638 23.192 176.382 22.352 176.382 21.392H179.31C179.374 22.112 179.654 22.704 180.15 23.168C180.662 23.632 181.374 23.864 182.286 23.864C183.23 23.864 183.966 23.64 184.494 23.192C185.022 22.728 185.286 22.136 185.286 21.416C185.286 20.856 185.118 20.4 184.782 20.048C184.462 19.696 184.054 19.424 183.558 19.232C183.078 19.04 182.406 18.832 181.542 18.608C180.454 18.32 179.566 18.032 178.878 17.744C178.206 17.44 177.63 16.976 177.15 16.352C176.67 15.728 176.43 14.896 176.43 13.856C176.43 12.896 176.67 12.056 177.15 11.336C177.63 10.616 178.302 10.064 179.166 9.68C180.03 9.296 181.03 9.104 182.166 9.104C183.782 9.104 185.102 9.512 186.126 10.328C187.166 11.128 187.742 12.232 187.854 13.64H184.83C184.782 13.032 184.494 12.512 183.966 12.08C183.438 11.648 182.742 11.432 181.878 11.432C181.094 11.432 180.454 11.632 179.958 12.032C179.462 12.432 179.214 13.008 179.214 13.76C179.214 14.272 179.366 14.696 179.67 15.032C179.99 15.352 180.39 15.608 180.87 15.8C181.35 15.992 182.006 16.2 182.838 16.424C183.942 16.728 184.838 17.032 185.526 17.336C186.23 17.64 186.822 18.112 187.302 18.752C187.798 19.376 188.046 20.216 188.046 21.272C188.046 22.12 187.814 22.92 187.35 23.672C186.902 24.424 186.238 25.032 185.358 25.496C184.494 25.944 183.47 26.168 182.286 26.168ZM194.467 15.008V22.328C194.467 22.824 194.579 23.184 194.803 23.408C195.043 23.616 195.443 23.72 196.003 23.72H197.683V26H195.523C194.291 26 193.347 25.712 192.691 25.136C192.035 24.56 191.707 23.624 191.707 22.328V15.008H190.147V12.776H191.707V9.488H194.467V12.776H197.683V15.008H194.467ZM212.18 12.776V26H209.444V24.44C209.012 24.984 208.444 25.416 207.74 25.736C207.052 26.04 206.316 26.192 205.532 26.192C204.492 26.192 203.556 25.976 202.724 25.544C201.908 25.112 201.26 24.472 200.78 23.624C200.316 22.776 200.084 21.752 200.084 20.552V12.776H202.796V20.144C202.796 21.328 203.092 22.24 203.684 22.88C204.276 23.504 205.084 23.816 206.108 23.816C207.132 23.816 207.94 23.504 208.532 22.88C209.14 22.24 209.444 21.328 209.444 20.144V12.776H212.18ZM214.878 19.328C214.878 18 215.15 16.824 215.694 15.8C216.254 14.776 217.006 13.984 217.95 13.424C218.91 12.848 219.974 12.56 221.142 12.56C222.006 12.56 222.854 12.752 223.686 13.136C224.534 13.504 225.206 14 225.702 14.624V8.24H228.462V26H225.702V24.008C225.254 24.648 224.63 25.176 223.83 25.592C223.046 26.008 222.142 26.216 221.118 26.216C219.966 26.216 218.91 25.928 217.95 25.352C217.006 24.76 216.254 23.944 215.694 22.904C215.15 21.848 214.878 20.656 214.878 19.328ZM225.702 19.376C225.702 18.464 225.51 17.672 225.126 17C224.758 16.328 224.27 15.816 223.662 15.464C223.054 15.112 222.398 14.936 221.694 14.936C220.99 14.936 220.334 15.112 219.726 15.464C219.118 15.8 218.622 16.304 218.238 16.976C217.87 17.632 217.686 18.416 217.686 19.328C217.686 20.24 217.87 21.04 218.238 21.728C218.622 22.416 219.118 22.944 219.726 23.312C220.35 23.664 221.006 23.84 221.694 23.84C222.398 23.84 223.054 23.664 223.662 23.312C224.27 22.96 224.758 22.448 225.126 21.776C225.51 21.088 225.702 20.288 225.702 19.376ZM233.448 11.024C232.952 11.024 232.536 10.856 232.2 10.52C231.864 10.184 231.696 9.768 231.696 9.272C231.696 8.776 231.864 8.36 232.2 8.024C232.536 7.688 232.952 7.52 233.448 7.52C233.928 7.52 234.336 7.688 234.672 8.024C235.008 8.36 235.176 8.776 235.176 9.272C235.176 9.768 235.008 10.184 234.672 10.52C234.336 10.856 233.928 11.024 233.448 11.024ZM234.792 12.776V26H232.056V12.776H234.792ZM244.12 26.216C242.872 26.216 241.744 25.936 240.736 25.376C239.728 24.8 238.936 24 238.36 22.976C237.784 21.936 237.496 20.736 237.496 19.376C237.496 18.032 237.792 16.84 238.384 15.8C238.976 14.76 239.784 13.96 240.808 13.4C241.832 12.84 242.976 12.56 244.24 12.56C245.504 12.56 246.648 12.84 247.672 13.4C248.696 13.96 249.504 14.76 250.096 15.8C250.688 16.84 250.984 18.032 250.984 19.376C250.984 20.72 250.68 21.912 250.072 22.952C249.464 23.992 248.632 24.8 247.576 25.376C246.536 25.936 245.384 26.216 244.12 26.216ZM244.12 23.84C244.824 23.84 245.48 23.672 246.088 23.336C246.712 23 247.216 22.496 247.6 21.824C247.984 21.152 248.176 20.336 248.176 19.376C248.176 18.416 247.992 17.608 247.624 16.952C247.256 16.28 246.768 15.776 246.16 15.44C245.552 15.104 244.896 14.936 244.192 14.936C243.488 14.936 242.832 15.104 242.224 15.44C241.632 15.776 241.16 16.28 240.808 16.952C240.456 17.608 240.28 18.416 240.28 19.376C240.28 20.8 240.64 21.904 241.36 22.688C242.096 23.456 243.016 23.84 244.12 23.84ZM259.011 17.624C259.011 15.992 259.387 14.528 260.139 13.232C260.907 11.936 261.939 10.928 263.235 10.208C264.547 9.472 265.979 9.104 267.531 9.104C269.307 9.104 270.883 9.544 272.259 10.424C273.651 11.288 274.659 12.52 275.283 14.12H271.995C271.563 13.24 270.963 12.584 270.195 12.152C269.427 11.72 268.539 11.504 267.531 11.504C266.427 11.504 265.443 11.752 264.579 12.248C263.715 12.744 263.035 13.456 262.539 14.384C262.059 15.312 261.819 16.392 261.819 17.624C261.819 18.856 262.059 19.936 262.539 20.864C263.035 21.792 263.715 22.512 264.579 23.024C265.443 23.52 266.427 23.768 267.531 23.768C268.539 23.768 269.427 23.552 270.195 23.12C270.963 22.688 271.563 22.032 271.995 21.152H275.283C274.659 22.752 273.651 23.984 272.259 24.848C270.883 25.712 269.307 26.144 267.531 26.144C265.963 26.144 264.531 25.784 263.235 25.064C261.939 24.328 260.907 23.312 260.139 22.016C259.387 20.72 259.011 19.256 259.011 17.624ZM284.222 26.216C282.974 26.216 281.846 25.936 280.838 25.376C279.83 24.8 279.038 24 278.462 22.976C277.886 21.936 277.598 20.736 277.598 19.376C277.598 18.032 277.894 16.84 278.486 15.8C279.078 14.76 279.886 13.96 280.91 13.4C281.934 12.84 283.078 12.56 284.342 12.56C285.606 12.56 286.75 12.84 287.774 13.4C288.798 13.96 289.606 14.76 290.198 15.8C290.79 16.84 291.086 18.032 291.086 19.376C291.086 20.72 290.782 21.912 290.174 22.952C289.566 23.992 288.734 24.8 287.678 25.376C286.638 25.936 285.486 26.216 284.222 26.216ZM284.222 23.84C284.926 23.84 285.582 23.672 286.19 23.336C286.814 23 287.318 22.496 287.702 21.824C288.086 21.152 288.278 20.336 288.278 19.376C288.278 18.416 288.094 17.608 287.726 16.952C287.358 16.28 286.87 15.776 286.262 15.44C285.654 15.104 284.998 14.936 284.294 14.936C283.59 14.936 282.934 15.104 282.326 15.44C281.734 15.776 281.262 16.28 280.91 16.952C280.558 17.608 280.382 18.416 280.382 19.376C280.382 20.8 280.742 21.904 281.462 22.688C282.198 23.456 283.118 23.84 284.222 23.84ZM292.878 19.328C292.878 18 293.15 16.824 293.694 15.8C294.254 14.776 295.006 13.984 295.95 13.424C296.91 12.848 297.974 12.56 299.142 12.56C300.006 12.56 300.854 12.752 301.686 13.136C302.534 13.504 303.206 14 303.702 14.624V8.24H306.462V26H303.702V24.008C303.254 24.648 302.63 25.176 301.83 25.592C301.046 26.008 300.142 26.216 299.118 26.216C297.966 26.216 296.91 25.928 295.95 25.352C295.006 24.76 294.254 23.944 293.694 22.904C293.15 21.848 292.878 20.656 292.878 19.328ZM303.702 19.376C303.702 18.464 303.51 17.672 303.126 17C302.758 16.328 302.27 15.816 301.662 15.464C301.054 15.112 300.398 14.936 299.694 14.936C298.99 14.936 298.334 15.112 297.726 15.464C297.118 15.8 296.622 16.304 296.238 16.976C295.87 17.632 295.686 18.416 295.686 19.328C295.686 20.24 295.87 21.04 296.238 21.728C296.622 22.416 297.118 22.944 297.726 23.312C298.35 23.664 299.006 23.84 299.694 23.84C300.398 23.84 301.054 23.664 301.662 23.312C302.27 22.96 302.758 22.448 303.126 21.776C303.51 21.088 303.702 20.288 303.702 19.376ZM322.176 19.064C322.176 19.56 322.144 20.008 322.08 20.408H311.976C312.056 21.464 312.448 22.312 313.152 22.952C313.856 23.592 314.72 23.912 315.744 23.912C317.216 23.912 318.256 23.296 318.864 22.064H321.816C321.416 23.28 320.688 24.28 319.632 25.064C318.592 25.832 317.296 26.216 315.744 26.216C314.48 26.216 313.344 25.936 312.336 25.376C311.344 24.8 310.56 24 309.984 22.976C309.424 21.936 309.144 20.736 309.144 19.376C309.144 18.016 309.416 16.824 309.96 15.8C310.52 14.76 311.296 13.96 312.288 13.4C313.296 12.84 314.448 12.56 315.744 12.56C316.992 12.56 318.104 12.832 319.08 13.376C320.056 13.92 320.816 14.688 321.36 15.68C321.904 16.656 322.176 17.784 322.176 19.064ZM319.32 18.2C319.304 17.192 318.944 16.384 318.24 15.776C317.536 15.168 316.664 14.864 315.624 14.864C314.68 14.864 313.872 15.168 313.2 15.776C312.528 16.368 312.128 17.176 312 18.2H319.32Z" fill="white" fill-opacity="0.78"/>
<path d="M103.242 46.454V47.786H97.7878V52.016H102.216V53.348H97.7878V59H96.1498V46.454H103.242ZM106.858 50.738C107.146 50.174 107.554 49.736 108.082 49.424C108.622 49.112 109.276 48.956 110.044 48.956V50.648H109.612C107.776 50.648 106.858 51.644 106.858 53.636V59H105.22V49.136H106.858V50.738ZM120.935 53.69C120.935 54.002 120.917 54.332 120.881 54.68H112.997C113.057 55.652 113.387 56.414 113.987 56.966C114.599 57.506 115.337 57.776 116.201 57.776C116.909 57.776 117.497 57.614 117.965 57.29C118.445 56.954 118.781 56.51 118.973 55.958H120.737C120.473 56.906 119.945 57.68 119.153 58.28C118.361 58.868 117.377 59.162 116.201 59.162C115.265 59.162 114.425 58.952 113.681 58.532C112.949 58.112 112.373 57.518 111.953 56.75C111.533 55.97 111.323 55.07 111.323 54.05C111.323 53.03 111.527 52.136 111.935 51.368C112.343 50.6 112.913 50.012 113.645 49.604C114.389 49.184 115.241 48.974 116.201 48.974C117.137 48.974 117.965 49.178 118.685 49.586C119.405 49.994 119.957 50.558 120.341 51.278C120.737 51.986 120.935 52.79 120.935 53.69ZM119.243 53.348C119.243 52.724 119.105 52.19 118.829 51.746C118.553 51.29 118.175 50.948 117.695 50.72C117.227 50.48 116.705 50.36 116.129 50.36C115.301 50.36 114.593 50.624 114.005 51.152C113.429 51.68 113.099 52.412 113.015 53.348H119.243ZM132.097 53.69C132.097 54.002 132.079 54.332 132.043 54.68H124.159C124.219 55.652 124.549 56.414 125.149 56.966C125.761 57.506 126.499 57.776 127.363 57.776C128.071 57.776 128.659 57.614 129.127 57.29C129.607 56.954 129.943 56.51 130.135 55.958H131.899C131.635 56.906 131.107 57.68 130.315 58.28C129.523 58.868 128.539 59.162 127.363 59.162C126.427 59.162 125.587 58.952 124.843 58.532C124.111 58.112 123.535 57.518 123.115 56.75C122.695 55.97 122.485 55.07 122.485 54.05C122.485 53.03 122.689 52.136 123.097 51.368C123.505 50.6 124.075 50.012 124.807 49.604C125.551 49.184 126.403 48.974 127.363 48.974C128.299 48.974 129.127 49.178 129.847 49.586C130.567 49.994 131.119 50.558 131.503 51.278C131.899 51.986 132.097 52.79 132.097 53.69ZM130.405 53.348C130.405 52.724 130.267 52.19 129.991 51.746C129.715 51.29 129.337 50.948 128.857 50.72C128.389 50.48 127.867 50.36 127.291 50.36C126.463 50.36 125.755 50.624 125.167 51.152C124.591 51.68 124.261 52.412 124.177 53.348H130.405Z" fill="#FFA537" fill-opacity="0.55"/>
<defs>
<linearGradient id="paint0_linear_17_100" x1="32.3737" y1="2.00012" x2="32.3737" y2="64.7647" gradientUnits="userSpaceOnUse">
<stop stop-color="white"/>
<stop offset="1" stop-color="white" stop-opacity="0"/>
</linearGradient>
</defs>
</svg>
