<svg width="196" height="66" viewBox="0 0 196 66" fill="none" xmlns="http://www.w3.org/2000/svg">
<g opacity="0.78" clip-path="url(#clip0_29_39)">
<path d="M0 5C0 2.79086 1.79086 1 4 1H61C63.2091 1 65 2.79086 65 5V60.8234C65 63.0325 63.2091 64.8234 61 64.8234H4C1.79086 64.8234 0 63.0325 0 60.8234V5Z" fill="#FF0066"/>
<path d="M22.1178 21.5381C24.1737 21.5087 25.819 19.8536 25.7992 17.8346C25.7792 15.8155 24.1016 14.192 22.0452 14.2017C19.9888 14.2114 18.3273 15.8506 18.327 17.8698C18.3287 18.3556 18.4283 18.8363 18.6201 19.2842C18.8119 19.732 19.092 20.1382 19.4444 20.4792C19.7968 20.8202 20.2145 21.0894 20.6733 21.2712C21.1321 21.453 21.6231 21.5438 22.1178 21.5384V21.5381Z" fill="white"/>
<path d="M14.258 41.178C14.0429 42.0813 13.9305 43.0053 13.9229 43.9329C13.9229 47.1622 15.7063 49.3065 19.4971 49.3065C22.6405 49.3065 25.191 47.4736 27.0242 44.5123L25.9034 48.9288H32.1434L35.7134 34.8877C36.6051 31.3288 38.3314 29.4832 40.9522 29.4832C43.0139 29.4832 44.2959 30.7417 44.2959 32.8224C44.3061 33.4893 44.2121 34.154 44.0176 34.7932L42.1793 41.2496C41.9164 42.1387 41.7852 43.0604 41.7896 43.9863C41.7896 47.0498 43.6279 49.2966 47.473 49.2966C50.7621 49.2966 53.383 47.2183 54.8312 42.2376L52.3793 41.3057C51.1521 44.6449 50.0941 45.2473 49.2593 45.2473C48.4247 45.2473 47.9748 44.7013 47.9748 43.6058C47.9989 43.0311 48.0923 42.4612 48.253 41.908L50.0393 35.6154C50.4403 34.3216 50.6471 32.9773 50.653 31.625C50.653 26.9173 47.7539 24.4615 44.2413 24.4615C40.9522 24.4615 37.6088 27.3742 35.9368 30.4405L37.1614 24.9362H27.6323L26.2934 29.7868H30.7551L28.0096 40.5705C25.8514 45.2782 21.8892 45.3547 21.3925 45.245C20.576 45.0635 20.056 44.7599 20.056 43.713C20.0799 42.8656 20.2109 42.0244 20.446 41.2087L24.6268 24.9235H14.0397L12.7034 29.7741H17.1051L14.258 41.178Z" fill="white"/>
</g>
<path d="M99.2998 9.32V26H96.5638V9.32H99.2998ZM109.564 12.56C110.604 12.56 111.532 12.776 112.348 13.208C113.18 13.64 113.828 14.28 114.292 15.128C114.756 15.976 114.988 17 114.988 18.2V26H112.276V18.608C112.276 17.424 111.98 16.52 111.388 15.896C110.796 15.256 109.988 14.936 108.964 14.936C107.94 14.936 107.124 15.256 106.516 15.896C105.924 16.52 105.628 17.424 105.628 18.608V26H102.892V12.776H105.628V14.288C106.076 13.744 106.644 13.32 107.332 13.016C108.036 12.712 108.78 12.56 109.564 12.56ZM123.59 23.552L127.334 12.776H130.238L125.198 26H121.934L116.918 12.776H119.846L123.59 23.552ZM133.698 11.024C133.202 11.024 132.786 10.856 132.45 10.52C132.114 10.184 131.946 9.768 131.946 9.272C131.946 8.776 132.114 8.36 132.45 8.024C132.786 7.688 133.202 7.52 133.698 7.52C134.178 7.52 134.586 7.688 134.922 8.024C135.258 8.36 135.426 8.776 135.426 9.272C135.426 9.768 135.258 10.184 134.922 10.52C134.586 10.856 134.178 11.024 133.698 11.024ZM135.042 12.776V26H132.306V12.776H135.042ZM143.434 26.216C142.394 26.216 141.458 26.032 140.626 25.664C139.81 25.28 139.162 24.768 138.682 24.128C138.202 23.472 137.946 22.744 137.914 21.944H140.746C140.794 22.504 141.058 22.976 141.538 23.36C142.034 23.728 142.65 23.912 143.386 23.912C144.154 23.912 144.746 23.768 145.162 23.48C145.594 23.176 145.81 22.792 145.81 22.328C145.81 21.832 145.57 21.464 145.09 21.224C144.626 20.984 143.882 20.72 142.858 20.432C141.866 20.16 141.058 19.896 140.434 19.64C139.81 19.384 139.266 18.992 138.802 18.464C138.354 17.936 138.13 17.24 138.13 16.376C138.13 15.672 138.338 15.032 138.754 14.456C139.17 13.864 139.762 13.4 140.53 13.064C141.314 12.728 142.21 12.56 143.218 12.56C144.722 12.56 145.93 12.944 146.842 13.712C147.77 14.464 148.266 15.496 148.33 16.808H145.594C145.546 16.216 145.306 15.744 144.874 15.392C144.442 15.04 143.858 14.864 143.122 14.864C142.402 14.864 141.85 15 141.466 15.272C141.082 15.544 140.89 15.904 140.89 16.352C140.89 16.704 141.018 17 141.274 17.24C141.53 17.48 141.842 17.672 142.21 17.816C142.578 17.944 143.122 18.112 143.842 18.32C144.802 18.576 145.586 18.84 146.194 19.112C146.818 19.368 147.354 19.752 147.802 20.264C148.25 20.776 148.482 21.456 148.498 22.304C148.498 23.056 148.29 23.728 147.874 24.32C147.458 24.912 146.866 25.376 146.098 25.712C145.346 26.048 144.458 26.216 143.434 26.216ZM152.846 11.024C152.35 11.024 151.934 10.856 151.598 10.52C151.262 10.184 151.094 9.768 151.094 9.272C151.094 8.776 151.262 8.36 151.598 8.024C151.934 7.688 152.35 7.52 152.846 7.52C153.326 7.52 153.734 7.688 154.07 8.024C154.406 8.36 154.574 8.776 154.574 9.272C154.574 9.768 154.406 10.184 154.07 10.52C153.734 10.856 153.326 11.024 152.846 11.024ZM154.19 12.776V26H151.454V12.776H154.19ZM163.519 26.216C162.271 26.216 161.143 25.936 160.135 25.376C159.127 24.8 158.335 24 157.759 22.976C157.183 21.936 156.895 20.736 156.895 19.376C156.895 18.032 157.191 16.84 157.783 15.8C158.375 14.76 159.183 13.96 160.207 13.4C161.231 12.84 162.375 12.56 163.639 12.56C164.903 12.56 166.047 12.84 167.071 13.4C168.095 13.96 168.903 14.76 169.495 15.8C170.087 16.84 170.383 18.032 170.383 19.376C170.383 20.72 170.079 21.912 169.471 22.952C168.863 23.992 168.031 24.8 166.975 25.376C165.935 25.936 164.783 26.216 163.519 26.216ZM163.519 23.84C164.223 23.84 164.879 23.672 165.487 23.336C166.111 23 166.615 22.496 166.999 21.824C167.383 21.152 167.575 20.336 167.575 19.376C167.575 18.416 167.391 17.608 167.023 16.952C166.655 16.28 166.167 15.776 165.559 15.44C164.951 15.104 164.295 14.936 163.591 14.936C162.887 14.936 162.231 15.104 161.623 15.44C161.031 15.776 160.559 16.28 160.207 16.952C159.855 17.608 159.679 18.416 159.679 19.376C159.679 20.8 160.039 21.904 160.759 22.688C161.495 23.456 162.415 23.84 163.519 23.84ZM179.759 12.56C180.799 12.56 181.727 12.776 182.543 13.208C183.375 13.64 184.023 14.28 184.487 15.128C184.951 15.976 185.183 17 185.183 18.2V26H182.471V18.608C182.471 17.424 182.175 16.52 181.583 15.896C180.991 15.256 180.183 14.936 179.159 14.936C178.135 14.936 177.319 15.256 176.711 15.896C176.119 16.52 175.823 17.424 175.823 18.608V26H173.087V12.776H175.823V14.288C176.271 13.744 176.839 13.32 177.527 13.016C178.231 12.712 178.975 12.56 179.759 12.56Z" fill="white" fill-opacity="0.78"/>
<path d="M103.242 46.454V47.786H97.7878V52.016H102.216V53.348H97.7878V59H96.1498V46.454H103.242ZM106.858 50.738C107.146 50.174 107.554 49.736 108.082 49.424C108.622 49.112 109.276 48.956 110.044 48.956V50.648H109.612C107.776 50.648 106.858 51.644 106.858 53.636V59H105.22V49.136H106.858V50.738ZM120.935 53.69C120.935 54.002 120.917 54.332 120.881 54.68H112.997C113.057 55.652 113.387 56.414 113.987 56.966C114.599 57.506 115.337 57.776 116.201 57.776C116.909 57.776 117.497 57.614 117.965 57.29C118.445 56.954 118.781 56.51 118.973 55.958H120.737C120.473 56.906 119.945 57.68 119.153 58.28C118.361 58.868 117.377 59.162 116.201 59.162C115.265 59.162 114.425 58.952 113.681 58.532C112.949 58.112 112.373 57.518 111.953 56.75C111.533 55.97 111.323 55.07 111.323 54.05C111.323 53.03 111.527 52.136 111.935 51.368C112.343 50.6 112.913 50.012 113.645 49.604C114.389 49.184 115.241 48.974 116.201 48.974C117.137 48.974 117.965 49.178 118.685 49.586C119.405 49.994 119.957 50.558 120.341 51.278C120.737 51.986 120.935 52.79 120.935 53.69ZM119.243 53.348C119.243 52.724 119.105 52.19 118.829 51.746C118.553 51.29 118.175 50.948 117.695 50.72C117.227 50.48 116.705 50.36 116.129 50.36C115.301 50.36 114.593 50.624 114.005 51.152C113.429 51.68 113.099 52.412 113.015 53.348H119.243ZM132.097 53.69C132.097 54.002 132.079 54.332 132.043 54.68H124.159C124.219 55.652 124.549 56.414 125.149 56.966C125.761 57.506 126.499 57.776 127.363 57.776C128.071 57.776 128.659 57.614 129.127 57.29C129.607 56.954 129.943 56.51 130.135 55.958H131.899C131.635 56.906 131.107 57.68 130.315 58.28C129.523 58.868 128.539 59.162 127.363 59.162C126.427 59.162 125.587 58.952 124.843 58.532C124.111 58.112 123.535 57.518 123.115 56.75C122.695 55.97 122.485 55.07 122.485 54.05C122.485 53.03 122.689 52.136 123.097 51.368C123.505 50.6 124.075 50.012 124.807 49.604C125.551 49.184 126.403 48.974 127.363 48.974C128.299 48.974 129.127 49.178 129.847 49.586C130.567 49.994 131.119 50.558 131.503 51.278C131.899 51.986 132.097 52.79 132.097 53.69ZM130.405 53.348C130.405 52.724 130.267 52.19 129.991 51.746C129.715 51.29 129.337 50.948 128.857 50.72C128.389 50.48 127.867 50.36 127.291 50.36C126.463 50.36 125.755 50.624 125.167 51.152C124.591 51.68 124.261 52.412 124.177 53.348H130.405ZM148.688 59L147.05 57.344C146.438 57.98 145.784 58.454 145.088 58.766C144.392 59.066 143.606 59.216 142.73 59.216C141.866 59.216 141.098 59.06 140.426 58.748C139.766 58.436 139.25 57.992 138.878 57.416C138.518 56.84 138.338 56.168 138.338 55.4C138.338 54.524 138.584 53.756 139.076 53.096C139.58 52.424 140.318 51.896 141.29 51.512C140.906 51.056 140.63 50.636 140.462 50.252C140.294 49.868 140.21 49.448 140.21 48.992C140.21 48.464 140.342 47.99 140.606 47.57C140.882 47.138 141.272 46.802 141.776 46.562C142.28 46.322 142.862 46.202 143.522 46.202C144.17 46.202 144.734 46.328 145.214 46.58C145.694 46.832 146.054 47.186 146.294 47.642C146.534 48.086 146.642 48.584 146.618 49.136H144.98C144.992 48.644 144.854 48.26 144.566 47.984C144.278 47.696 143.906 47.552 143.45 47.552C142.97 47.552 142.58 47.69 142.28 47.966C141.992 48.23 141.848 48.572 141.848 48.992C141.848 49.352 141.944 49.7 142.136 50.036C142.34 50.372 142.676 50.786 143.144 51.278L146.888 55.04L147.212 54.536L148.436 52.484H150.2L148.724 55.04C148.52 55.4 148.28 55.778 148.004 56.174L150.83 59H148.688ZM142.73 57.812C143.378 57.812 143.96 57.686 144.476 57.434C145.004 57.182 145.502 56.792 145.97 56.264L142.28 52.556C140.744 53.144 139.976 54.074 139.976 55.346C139.976 56.054 140.228 56.642 140.732 57.11C141.248 57.578 141.914 57.812 142.73 57.812ZM165.551 50.126C165.551 51.17 165.191 52.04 164.471 52.736C163.763 53.42 162.677 53.762 161.213 53.762H158.801V59H157.163V46.454H161.213C162.629 46.454 163.703 46.796 164.435 47.48C165.179 48.164 165.551 49.046 165.551 50.126ZM161.213 52.412C162.125 52.412 162.797 52.214 163.229 51.818C163.661 51.422 163.877 50.858 163.877 50.126C163.877 48.578 162.989 47.804 161.213 47.804H158.801V52.412H161.213ZM166.975 54.032C166.975 53.024 167.179 52.142 167.587 51.386C167.995 50.618 168.553 50.024 169.261 49.604C169.981 49.184 170.779 48.974 171.655 48.974C172.519 48.974 173.269 49.16 173.905 49.532C174.541 49.904 175.015 50.372 175.327 50.936V49.136H176.983V59H175.327V57.164C175.003 57.74 174.517 58.22 173.869 58.604C173.233 58.976 172.489 59.162 171.637 59.162C170.761 59.162 169.969 58.946 169.261 58.514C168.553 58.082 167.995 57.476 167.587 56.696C167.179 55.916 166.975 55.028 166.975 54.032ZM175.327 54.05C175.327 53.306 175.177 52.658 174.877 52.106C174.577 51.554 174.169 51.134 173.653 50.846C173.149 50.546 172.591 50.396 171.979 50.396C171.367 50.396 170.809 50.54 170.305 50.828C169.801 51.116 169.399 51.536 169.099 52.088C168.799 52.64 168.649 53.288 168.649 54.032C168.649 54.788 168.799 55.448 169.099 56.012C169.399 56.564 169.801 56.99 170.305 57.29C170.809 57.578 171.367 57.722 171.979 57.722C172.591 57.722 173.149 57.578 173.653 57.29C174.169 56.99 174.577 56.564 174.877 56.012C175.177 55.448 175.327 54.794 175.327 54.05ZM180.597 47.534C180.285 47.534 180.021 47.426 179.805 47.21C179.589 46.994 179.481 46.73 179.481 46.418C179.481 46.106 179.589 45.842 179.805 45.626C180.021 45.41 180.285 45.302 180.597 45.302C180.897 45.302 181.149 45.41 181.353 45.626C181.569 45.842 181.677 46.106 181.677 46.418C181.677 46.73 181.569 46.994 181.353 47.21C181.149 47.426 180.897 47.534 180.597 47.534ZM181.389 49.136V59H179.751V49.136H181.389ZM183.569 54.032C183.569 53.024 183.773 52.142 184.181 51.386C184.589 50.618 185.147 50.024 185.855 49.604C186.575 49.184 187.379 48.974 188.267 48.974C189.035 48.974 189.749 49.154 190.409 49.514C191.069 49.862 191.573 50.324 191.921 50.9V45.68H193.577V59H191.921V57.146C191.597 57.734 191.117 58.22 190.481 58.604C189.845 58.976 189.101 59.162 188.249 59.162C187.373 59.162 186.575 58.946 185.855 58.514C185.147 58.082 184.589 57.476 184.181 56.696C183.773 55.916 183.569 55.028 183.569 54.032ZM191.921 54.05C191.921 53.306 191.771 52.658 191.471 52.106C191.171 51.554 190.763 51.134 190.247 50.846C189.743 50.546 189.185 50.396 188.573 50.396C187.961 50.396 187.403 50.54 186.899 50.828C186.395 51.116 185.993 51.536 185.693 52.088C185.393 52.64 185.243 53.288 185.243 54.032C185.243 54.788 185.393 55.448 185.693 56.012C185.993 56.564 186.395 56.99 186.899 57.29C187.403 57.578 187.961 57.722 188.573 57.722C189.185 57.722 189.743 57.578 190.247 57.29C190.763 56.99 191.171 56.564 191.471 56.012C191.771 55.448 191.921 54.794 191.921 54.05Z" fill="#FFA537" fill-opacity="0.55"/>
<defs>
<clipPath id="clip0_29_39">
<rect width="65" height="63.8234" fill="white" transform="translate(0 1)"/>
</clipPath>
</defs>
</svg>
