<svg width="196" height="66" viewBox="0 0 196 66" fill="none" xmlns="http://www.w3.org/2000/svg">
<g opacity="0.78" clip-path="url(#clip0_29_71)">
<path fill-rule="evenodd" clip-rule="evenodd" d="M13.6717 41.2192C13.6724 42.0975 13.4967 42.9674 13.1546 43.779C12.8125 44.5906 12.3108 45.328 11.6781 45.949C11.0454 46.57 10.2942 47.0624 9.46751 47.3979C8.6408 47.7335 7.75481 47.9057 6.86024 47.9046C5.96613 47.905 5.08072 47.7323 4.25464 47.3964C3.42855 47.0605 2.678 46.568 2.04589 45.9471C1.41379 45.3262 0.912528 44.5891 0.570777 43.7778C0.229027 42.9665 0.0534894 42.0971 0.0542014 41.2192C0.053489 40.341 0.229116 39.4714 0.571036 38.6599C0.912955 37.8485 1.41446 37.1112 2.04685 36.4903C2.67924 35.8693 3.43012 35.3769 4.25651 35.0412C5.08291 34.7054 5.96861 34.533 6.86295 34.5337H13.6744V41.2192H13.6717ZM17.0761 41.2192C17.0754 40.341 17.251 39.4714 17.5929 38.6599C17.9348 37.8485 18.4363 37.1112 19.0687 36.4903C19.7011 35.8693 20.452 35.3769 21.2784 35.0412C22.1048 34.7054 22.9905 34.533 23.8848 34.5337C24.7792 34.533 25.6649 34.7054 26.4913 35.0412C27.3177 35.3769 28.0685 35.8693 28.7009 36.4903C29.3333 37.1112 29.8348 37.8485 30.1767 38.6599C30.5187 39.4714 30.6943 40.341 30.6936 41.2192V57.9355C30.6943 58.8136 30.5187 59.6833 30.1767 60.4947C29.8348 61.3062 29.3333 62.0435 28.7009 62.6644C28.0685 63.2853 27.3177 63.7778 26.4913 64.1135C25.6649 64.4492 24.7792 64.6217 23.8848 64.621C22.9905 64.6217 22.1048 64.4492 21.2784 64.1135C20.452 63.7778 19.7011 63.2853 19.0687 62.6644C18.4363 62.0435 17.9348 61.3062 17.5929 60.4947C17.251 59.6833 17.0754 58.8136 17.0761 57.9355V41.2192Z" fill="#E01E5A"/>
<path fill-rule="evenodd" clip-rule="evenodd" d="M23.8848 14.3736C22.9902 14.3743 22.1043 14.2018 21.2777 13.8659C20.4512 13.53 19.7002 13.0373 19.0677 12.4161C18.4353 11.7949 17.9339 11.0573 17.5921 10.2455C17.2503 9.43379 17.075 8.56384 17.076 7.68547C17.0753 6.80733 17.251 5.93766 17.5929 5.12623C17.9348 4.31479 18.4363 3.57751 19.0687 2.95657C19.7011 2.33563 20.452 1.84321 21.2784 1.50748C22.1048 1.17175 22.9905 0.999303 23.8848 1C24.7791 0.999303 25.6648 1.17175 26.4912 1.50748C27.3176 1.84321 28.0685 2.33563 28.7009 2.95657C29.3333 3.57751 29.8348 4.31479 30.1767 5.12623C30.5186 5.93766 30.6943 6.80733 30.6935 7.68547V14.3763H23.8875L23.8848 14.3736ZM23.8848 17.7669C24.7791 17.7662 25.6648 17.9386 26.4912 18.2743C27.3176 18.6101 28.0685 19.1025 28.7009 19.7234C29.3333 20.3444 29.8348 21.0817 30.1767 21.8931C30.5186 22.7045 30.6943 23.5742 30.6935 24.4523C30.6943 25.3305 30.5186 26.2001 30.1767 27.0116C29.8348 27.823 29.3333 28.5603 28.7009 29.1812C28.0685 29.8022 27.3176 30.2946 26.4912 30.6303C25.6648 30.9661 24.7791 31.1385 23.8848 31.1378H6.80875C5.91464 31.1385 5.02916 30.9662 4.20294 30.6306C3.37672 30.295 2.62597 29.8028 1.99361 29.1822C1.36125 28.5615 0.859694 27.8246 0.517615 27.0134C0.175536 26.2023 -0.000354061 25.3329 2.15823e-06 24.455C-0.000710178 23.5769 0.174917 22.7072 0.516837 21.8958C0.858756 21.0843 1.36026 20.347 1.99265 19.7261C2.62504 19.1052 3.37592 18.6127 4.20231 18.277C5.02871 17.9413 5.91441 17.7688 6.80875 17.7695H23.8875L23.8848 17.7669Z" fill="#36C5F0"/>
<path fill-rule="evenodd" clip-rule="evenodd" d="M51.1738 24.4523C51.1731 23.574 51.3488 22.7041 51.6909 21.8925C52.0329 21.0809 52.5347 20.3435 53.1674 19.7225C53.8 19.1015 54.5512 18.6092 55.378 18.2736C56.2047 17.938 57.0907 17.7658 57.9852 17.7669C58.8796 17.7662 59.7653 17.9386 60.5917 18.2743C61.4181 18.6101 62.1689 19.1025 62.8013 19.7234C63.4337 20.3444 63.9352 21.0817 64.2771 21.8931C64.6191 22.7045 64.7947 23.5742 64.794 24.4523C64.7947 25.3305 64.6191 26.2002 64.2771 27.0116C63.9352 27.823 63.4337 28.5603 62.8013 29.1812C62.1689 29.8022 61.4181 30.2946 60.5917 30.6303C59.7653 30.9661 58.8796 31.1385 57.9852 31.1378H51.1738V24.455V24.4523ZM47.7694 24.4523C47.7701 25.3305 47.5945 26.2002 47.2526 27.0116C46.9106 27.823 46.4091 28.5603 45.7767 29.1812C45.1444 29.8022 44.3935 30.2946 43.5671 30.6303C42.7407 30.9661 41.855 31.1385 40.9606 31.1378C40.0661 31.1389 39.1801 30.9667 38.3534 30.6311C37.5267 30.2955 36.7755 29.8032 36.1428 29.1822C35.5101 28.5612 35.0084 27.8238 34.6663 27.0122C34.3242 26.2006 34.1485 25.3307 34.1492 24.4523V7.68548C34.1485 6.80711 34.3242 5.93722 34.6663 5.12561C35.0084 4.31401 35.5101 3.57661 36.1428 2.95563C36.7755 2.33465 37.5267 1.84229 38.3534 1.50672C39.1801 1.17114 40.0661 0.998955 40.9606 1C41.855 0.999305 42.7407 1.17175 43.5671 1.50748C44.3935 1.84321 45.1444 2.33563 45.7767 2.95657C46.4091 3.57752 46.9106 4.3148 47.2526 5.12623C47.5945 5.93766 47.7701 6.80733 47.7694 7.68548V24.455V24.4523Z" fill="#2EB67D"/>
<path fill-rule="evenodd" clip-rule="evenodd" d="M40.9606 51.2474C41.8549 51.2467 42.7406 51.4191 43.567 51.7548C44.3934 52.0906 45.1443 52.583 45.7767 53.2039C46.4091 53.8249 46.9106 54.5622 47.2525 55.3736C47.5944 56.185 47.7701 57.0547 47.7693 57.9328C47.7704 58.8112 47.5951 59.6812 47.2533 60.4929C46.9115 61.3046 46.4101 62.0422 45.7777 62.6635C45.1452 63.2847 44.3942 63.7773 43.5677 64.1132C42.7411 64.4491 41.8552 64.6217 40.9606 64.621C40.066 64.6217 39.1801 64.4491 38.3535 64.1132C37.527 63.7773 36.776 63.2847 36.1435 62.6635C35.5111 62.0422 35.0097 61.3046 34.6679 60.4929C34.3261 59.6812 34.1508 58.8112 34.1518 57.9328V51.2474H40.9606ZM40.9606 47.9046C40.0663 47.9053 39.1806 47.7329 38.3542 47.3972C37.5278 47.0614 36.7769 46.569 36.1445 45.9481C35.5121 45.3271 35.0106 44.5898 34.6687 43.7784C34.3268 42.967 34.1511 42.0973 34.1518 41.2192C34.1511 40.341 34.3268 39.4714 34.6687 38.6599C35.0106 37.8485 35.5121 37.1112 36.1445 36.4903C36.7769 35.8693 37.5278 35.3769 38.3542 35.0412C39.1806 34.7054 40.0663 34.533 40.9606 34.5337H58.0366C58.931 34.533 59.8167 34.7054 60.6431 35.0412C61.4695 35.3769 62.2203 35.8693 62.8527 36.4903C63.4851 37.1112 63.9866 37.8485 64.3286 38.6599C64.6705 39.4714 64.8461 40.341 64.8454 41.2192C64.8461 42.0973 64.6705 42.967 64.3286 43.7784C63.9866 44.5898 63.4851 45.3271 62.8527 45.9481C62.2203 46.569 61.4695 47.0614 60.6431 47.3972C59.8167 47.7329 58.931 47.9053 58.0366 47.9046H40.9606Z" fill="#ECB22E"/>
</g>
<path d="M102.296 26.168C101.176 26.168 100.168 25.976 99.272 25.592C98.376 25.192 97.672 24.632 97.16 23.912C96.648 23.192 96.392 22.352 96.392 21.392H99.32C99.384 22.112 99.664 22.704 100.16 23.168C100.672 23.632 101.384 23.864 102.296 23.864C103.24 23.864 103.976 23.64 104.504 23.192C105.032 22.728 105.296 22.136 105.296 21.416C105.296 20.856 105.128 20.4 104.792 20.048C104.472 19.696 104.064 19.424 103.568 19.232C103.088 19.04 102.416 18.832 101.552 18.608C100.464 18.32 99.576 18.032 98.888 17.744C98.216 17.44 97.64 16.976 97.16 16.352C96.68 15.728 96.44 14.896 96.44 13.856C96.44 12.896 96.68 12.056 97.16 11.336C97.64 10.616 98.312 10.064 99.176 9.68C100.04 9.296 101.04 9.104 102.176 9.104C103.792 9.104 105.112 9.512 106.136 10.328C107.176 11.128 107.752 12.232 107.864 13.64H104.84C104.792 13.032 104.504 12.512 103.976 12.08C103.448 11.648 102.752 11.432 101.888 11.432C101.104 11.432 100.464 11.632 99.968 12.032C99.472 12.432 99.224 13.008 99.224 13.76C99.224 14.272 99.376 14.696 99.68 15.032C100 15.352 100.4 15.608 100.88 15.8C101.36 15.992 102.016 16.2 102.848 16.424C103.952 16.728 104.848 17.032 105.536 17.336C106.24 17.64 106.832 18.112 107.312 18.752C107.808 19.376 108.056 20.216 108.056 21.272C108.056 22.12 107.824 22.92 107.36 23.672C106.912 24.424 106.248 25.032 105.368 25.496C104.504 25.944 103.48 26.168 102.296 26.168ZM114.02 8.24V26H111.284V8.24H114.02ZM116.701 19.328C116.701 18 116.973 16.824 117.517 15.8C118.077 14.776 118.829 13.984 119.773 13.424C120.733 12.848 121.789 12.56 122.941 12.56C123.981 12.56 124.885 12.768 125.653 13.184C126.437 13.584 127.061 14.088 127.525 14.696V12.776H130.285V26H127.525V24.032C127.061 24.656 126.429 25.176 125.629 25.592C124.829 26.008 123.917 26.216 122.893 26.216C121.757 26.216 120.717 25.928 119.773 25.352C118.829 24.76 118.077 23.944 117.517 22.904C116.973 21.848 116.701 20.656 116.701 19.328ZM127.525 19.376C127.525 18.464 127.333 17.672 126.949 17C126.581 16.328 126.093 15.816 125.485 15.464C124.877 15.112 124.221 14.936 123.517 14.936C122.813 14.936 122.157 15.112 121.549 15.464C120.941 15.8 120.445 16.304 120.061 16.976C119.693 17.632 119.509 18.416 119.509 19.328C119.509 20.24 119.693 21.04 120.061 21.728C120.445 22.416 120.941 22.944 121.549 23.312C122.173 23.664 122.829 23.84 123.517 23.84C124.221 23.84 124.877 23.664 125.485 23.312C126.093 22.96 126.581 22.448 126.949 21.776C127.333 21.088 127.525 20.288 127.525 19.376ZM132.966 19.376C132.966 18.016 133.238 16.824 133.782 15.8C134.342 14.76 135.11 13.96 136.086 13.4C137.062 12.84 138.182 12.56 139.446 12.56C141.046 12.56 142.366 12.944 143.406 13.712C144.462 14.464 145.174 15.544 145.542 16.952H142.59C142.35 16.296 141.966 15.784 141.438 15.416C140.91 15.048 140.246 14.864 139.446 14.864C138.326 14.864 137.43 15.264 136.758 16.064C136.102 16.848 135.774 17.952 135.774 19.376C135.774 20.8 136.102 21.912 136.758 22.712C137.43 23.512 138.326 23.912 139.446 23.912C141.03 23.912 142.078 23.216 142.59 21.824H145.542C145.158 23.168 144.438 24.24 143.382 25.04C142.326 25.824 141.014 26.216 139.446 26.216C138.182 26.216 137.062 25.936 136.086 25.376C135.11 24.8 134.342 24 133.782 22.976C133.238 21.936 132.966 20.736 132.966 19.376ZM153.501 19.4L159.597 26H155.901L151.005 20.312V26H148.269V8.24H151.005V18.56L155.805 12.776H159.597L153.501 19.4Z" fill="white" fill-opacity="0.78"/>
<path d="M103.478 46.454V47.786H98.024V52.016H102.452V53.348H98.024V59H96.386V46.454H103.478ZM107.094 50.738C107.382 50.174 107.79 49.736 108.318 49.424C108.858 49.112 109.512 48.956 110.28 48.956V50.648H109.848C108.012 50.648 107.094 51.644 107.094 53.636V59H105.456V49.136H107.094V50.738ZM121.171 53.69C121.171 54.002 121.153 54.332 121.117 54.68H113.233C113.293 55.652 113.623 56.414 114.223 56.966C114.835 57.506 115.573 57.776 116.437 57.776C117.145 57.776 117.733 57.614 118.201 57.29C118.681 56.954 119.017 56.51 119.209 55.958H120.973C120.709 56.906 120.181 57.68 119.389 58.28C118.597 58.868 117.613 59.162 116.437 59.162C115.501 59.162 114.661 58.952 113.917 58.532C113.185 58.112 112.609 57.518 112.189 56.75C111.769 55.97 111.559 55.07 111.559 54.05C111.559 53.03 111.763 52.136 112.171 51.368C112.579 50.6 113.149 50.012 113.881 49.604C114.625 49.184 115.477 48.974 116.437 48.974C117.373 48.974 118.201 49.178 118.921 49.586C119.641 49.994 120.193 50.558 120.577 51.278C120.973 51.986 121.171 52.79 121.171 53.69ZM119.479 53.348C119.479 52.724 119.341 52.19 119.065 51.746C118.789 51.29 118.411 50.948 117.931 50.72C117.463 50.48 116.941 50.36 116.365 50.36C115.537 50.36 114.829 50.624 114.241 51.152C113.665 51.68 113.335 52.412 113.251 53.348H119.479ZM132.333 53.69C132.333 54.002 132.315 54.332 132.279 54.68H124.395C124.455 55.652 124.785 56.414 125.385 56.966C125.997 57.506 126.735 57.776 127.599 57.776C128.307 57.776 128.895 57.614 129.363 57.29C129.843 56.954 130.179 56.51 130.371 55.958H132.135C131.871 56.906 131.343 57.68 130.551 58.28C129.759 58.868 128.775 59.162 127.599 59.162C126.663 59.162 125.823 58.952 125.079 58.532C124.347 58.112 123.771 57.518 123.351 56.75C122.931 55.97 122.721 55.07 122.721 54.05C122.721 53.03 122.925 52.136 123.333 51.368C123.741 50.6 124.311 50.012 125.043 49.604C125.787 49.184 126.639 48.974 127.599 48.974C128.535 48.974 129.363 49.178 130.083 49.586C130.803 49.994 131.355 50.558 131.739 51.278C132.135 51.986 132.333 52.79 132.333 53.69ZM130.641 53.348C130.641 52.724 130.503 52.19 130.227 51.746C129.951 51.29 129.573 50.948 129.093 50.72C128.625 50.48 128.103 50.36 127.527 50.36C126.699 50.36 125.991 50.624 125.403 51.152C124.827 51.68 124.497 52.412 124.413 53.348H130.641ZM148.924 59L147.286 57.344C146.674 57.98 146.02 58.454 145.324 58.766C144.628 59.066 143.842 59.216 142.966 59.216C142.102 59.216 141.334 59.06 140.662 58.748C140.002 58.436 139.486 57.992 139.114 57.416C138.754 56.84 138.574 56.168 138.574 55.4C138.574 54.524 138.82 53.756 139.312 53.096C139.816 52.424 140.554 51.896 141.526 51.512C141.142 51.056 140.866 50.636 140.698 50.252C140.53 49.868 140.446 49.448 140.446 48.992C140.446 48.464 140.578 47.99 140.842 47.57C141.118 47.138 141.508 46.802 142.012 46.562C142.516 46.322 143.098 46.202 143.758 46.202C144.406 46.202 144.97 46.328 145.45 46.58C145.93 46.832 146.29 47.186 146.53 47.642C146.77 48.086 146.878 48.584 146.854 49.136H145.216C145.228 48.644 145.09 48.26 144.802 47.984C144.514 47.696 144.142 47.552 143.686 47.552C143.206 47.552 142.816 47.69 142.516 47.966C142.228 48.23 142.084 48.572 142.084 48.992C142.084 49.352 142.18 49.7 142.372 50.036C142.576 50.372 142.912 50.786 143.38 51.278L147.124 55.04L147.448 54.536L148.672 52.484H150.436L148.96 55.04C148.756 55.4 148.516 55.778 148.24 56.174L151.066 59H148.924ZM142.966 57.812C143.614 57.812 144.196 57.686 144.712 57.434C145.24 57.182 145.738 56.792 146.206 56.264L142.516 52.556C140.98 53.144 140.212 54.074 140.212 55.346C140.212 56.054 140.464 56.642 140.968 57.11C141.484 57.578 142.15 57.812 142.966 57.812ZM165.788 50.126C165.788 51.17 165.428 52.04 164.708 52.736C164 53.42 162.914 53.762 161.45 53.762H159.038V59H157.4V46.454H161.45C162.866 46.454 163.94 46.796 164.672 47.48C165.416 48.164 165.788 49.046 165.788 50.126ZM161.45 52.412C162.362 52.412 163.034 52.214 163.466 51.818C163.898 51.422 164.114 50.858 164.114 50.126C164.114 48.578 163.226 47.804 161.45 47.804H159.038V52.412H161.45ZM167.212 54.032C167.212 53.024 167.416 52.142 167.824 51.386C168.232 50.618 168.79 50.024 169.498 49.604C170.218 49.184 171.016 48.974 171.892 48.974C172.756 48.974 173.506 49.16 174.142 49.532C174.778 49.904 175.252 50.372 175.564 50.936V49.136H177.22V59H175.564V57.164C175.24 57.74 174.754 58.22 174.106 58.604C173.47 58.976 172.726 59.162 171.874 59.162C170.998 59.162 170.206 58.946 169.498 58.514C168.79 58.082 168.232 57.476 167.824 56.696C167.416 55.916 167.212 55.028 167.212 54.032ZM175.564 54.05C175.564 53.306 175.414 52.658 175.114 52.106C174.814 51.554 174.406 51.134 173.89 50.846C173.386 50.546 172.828 50.396 172.216 50.396C171.604 50.396 171.046 50.54 170.542 50.828C170.038 51.116 169.636 51.536 169.336 52.088C169.036 52.64 168.886 53.288 168.886 54.032C168.886 54.788 169.036 55.448 169.336 56.012C169.636 56.564 170.038 56.99 170.542 57.29C171.046 57.578 171.604 57.722 172.216 57.722C172.828 57.722 173.386 57.578 173.89 57.29C174.406 56.99 174.814 56.564 175.114 56.012C175.414 55.448 175.564 54.794 175.564 54.05ZM180.834 47.534C180.522 47.534 180.258 47.426 180.042 47.21C179.826 46.994 179.718 46.73 179.718 46.418C179.718 46.106 179.826 45.842 180.042 45.626C180.258 45.41 180.522 45.302 180.834 45.302C181.134 45.302 181.386 45.41 181.59 45.626C181.806 45.842 181.914 46.106 181.914 46.418C181.914 46.73 181.806 46.994 181.59 47.21C181.386 47.426 181.134 47.534 180.834 47.534ZM181.626 49.136V59H179.988V49.136H181.626ZM183.805 54.032C183.805 53.024 184.009 52.142 184.417 51.386C184.825 50.618 185.383 50.024 186.091 49.604C186.811 49.184 187.615 48.974 188.503 48.974C189.271 48.974 189.985 49.154 190.645 49.514C191.305 49.862 191.809 50.324 192.157 50.9V45.68H193.813V59H192.157V57.146C191.833 57.734 191.353 58.22 190.717 58.604C190.081 58.976 189.337 59.162 188.485 59.162C187.609 59.162 186.811 58.946 186.091 58.514C185.383 58.082 184.825 57.476 184.417 56.696C184.009 55.916 183.805 55.028 183.805 54.032ZM192.157 54.05C192.157 53.306 192.007 52.658 191.707 52.106C191.407 51.554 190.999 51.134 190.483 50.846C189.979 50.546 189.421 50.396 188.809 50.396C188.197 50.396 187.639 50.54 187.135 50.828C186.631 51.116 186.229 51.536 185.929 52.088C185.629 52.64 185.479 53.288 185.479 54.032C185.479 54.788 185.629 55.448 185.929 56.012C186.229 56.564 186.631 56.99 187.135 57.29C187.639 57.578 188.197 57.722 188.809 57.722C189.421 57.722 189.979 57.578 190.483 57.29C190.999 56.99 191.407 56.564 191.707 56.012C192.007 55.448 192.157 54.794 192.157 54.05Z" fill="#FFA537" fill-opacity="0.55"/>
<defs>
<clipPath id="clip0_29_71">
<rect width="65" height="63.8231" fill="white" transform="translate(0 1)"/>
</clipPath>
</defs>
</svg>
