<svg width="194" height="66" viewBox="0 0 194 66" fill="none" xmlns="http://www.w3.org/2000/svg">
<g clip-path="url(#clip0_17_164)">
<path d="M32 5L13.9637 6.87248L0 25.2781L32 61.867L64 25.2779L50.0365 6.87248L32 5Z" fill="#FDB300"/>
<path d="M0 25.2782L32 61.8671L12.9615 25.2782H0Z" fill="#EB6C00"/>
<path d="M51.0382 25.2782L32 61.8671L64 25.2782H51.0382Z" fill="#EB6C00"/>
<path d="M12.9617 25.2782L32.0002 61.8671L51.0387 25.2782H12.9617Z" fill="#FDAD00"/>
<path d="M13.9636 6.87248L12.9611 25.2781L31.9998 5L13.9636 6.87248Z" fill="#FDD231"/>
<path d="M51.0382 25.2781L50.0363 6.87248L32 5L51.0382 25.2781Z" fill="#FDD231"/>
<path d="M51.0383 25.2781H63.9998L50.0363 6.87244L51.0383 25.2781Z" fill="#FDAD00"/>
<path d="M0 25.2781H12.9615L13.9637 6.87244L0 25.2781Z" fill="#FDAD00"/>
<path d="M32.0002 5L12.9617 25.2779H51.0387L32.0002 5Z" fill="#FEEEB7"/>
</g>
<path d="M101.296 26.168C100.176 26.168 99.168 25.976 98.272 25.592C97.376 25.192 96.672 24.632 96.16 23.912C95.648 23.192 95.392 22.352 95.392 21.392H98.32C98.384 22.112 98.664 22.704 99.16 23.168C99.672 23.632 100.384 23.864 101.296 23.864C102.24 23.864 102.976 23.64 103.504 23.192C104.032 22.728 104.296 22.136 104.296 21.416C104.296 20.856 104.128 20.4 103.792 20.048C103.472 19.696 103.064 19.424 102.568 19.232C102.088 19.04 101.416 18.832 100.552 18.608C99.464 18.32 98.576 18.032 97.888 17.744C97.216 17.44 96.64 16.976 96.16 16.352C95.68 15.728 95.44 14.896 95.44 13.856C95.44 12.896 95.68 12.056 96.16 11.336C96.64 10.616 97.312 10.064 98.176 9.68C99.04 9.296 100.04 9.104 101.176 9.104C102.792 9.104 104.112 9.512 105.136 10.328C106.176 11.128 106.752 12.232 106.864 13.64H103.84C103.792 13.032 103.504 12.512 102.976 12.08C102.448 11.648 101.752 11.432 100.888 11.432C100.104 11.432 99.464 11.632 98.968 12.032C98.472 12.432 98.224 13.008 98.224 13.76C98.224 14.272 98.376 14.696 98.68 15.032C99 15.352 99.4 15.608 99.88 15.8C100.36 15.992 101.016 16.2 101.848 16.424C102.952 16.728 103.848 17.032 104.536 17.336C105.24 17.64 105.832 18.112 106.312 18.752C106.808 19.376 107.056 20.216 107.056 21.272C107.056 22.12 106.824 22.92 106.36 23.672C105.912 24.424 105.248 25.032 104.368 25.496C103.504 25.944 102.48 26.168 101.296 26.168ZM115.516 19.4L121.612 26H117.916L113.02 20.312V26H110.284V8.24H113.02V18.56L117.82 12.776H121.612L115.516 19.4ZM135.693 19.064C135.693 19.56 135.661 20.008 135.597 20.408H125.493C125.573 21.464 125.965 22.312 126.669 22.952C127.373 23.592 128.237 23.912 129.261 23.912C130.733 23.912 131.773 23.296 132.381 22.064H135.333C134.933 23.28 134.205 24.28 133.149 25.064C132.109 25.832 130.813 26.216 129.261 26.216C127.997 26.216 126.861 25.936 125.853 25.376C124.861 24.8 124.077 24 123.501 22.976C122.941 21.936 122.661 20.736 122.661 19.376C122.661 18.016 122.933 16.824 123.477 15.8C124.037 14.76 124.813 13.96 125.805 13.4C126.813 12.84 127.965 12.56 129.261 12.56C130.509 12.56 131.621 12.832 132.597 13.376C133.573 13.92 134.333 14.688 134.877 15.68C135.421 16.656 135.693 17.784 135.693 19.064ZM132.837 18.2C132.821 17.192 132.461 16.384 131.757 15.776C131.053 15.168 130.181 14.864 129.141 14.864C128.197 14.864 127.389 15.168 126.717 15.776C126.045 16.368 125.645 17.176 125.517 18.2H132.837ZM141.578 15.008V22.328C141.578 22.824 141.69 23.184 141.914 23.408C142.154 23.616 142.554 23.72 143.114 23.72H144.794V26H142.634C141.402 26 140.458 25.712 139.802 25.136C139.146 24.56 138.818 23.624 138.818 22.328V15.008H137.258V12.776H138.818V9.488H141.578V12.776H144.794V15.008H141.578ZM146.404 19.376C146.404 18.016 146.676 16.824 147.22 15.8C147.78 14.76 148.548 13.96 149.524 13.4C150.5 12.84 151.62 12.56 152.884 12.56C154.484 12.56 155.804 12.944 156.844 13.712C157.9 14.464 158.612 15.544 158.98 16.952H156.028C155.788 16.296 155.404 15.784 154.876 15.416C154.348 15.048 153.684 14.864 152.884 14.864C151.764 14.864 150.868 15.264 150.196 16.064C149.54 16.848 149.212 17.952 149.212 19.376C149.212 20.8 149.54 21.912 150.196 22.712C150.868 23.512 151.764 23.912 152.884 23.912C154.468 23.912 155.516 23.216 156.028 21.824H158.98C158.596 23.168 157.876 24.24 156.82 25.04C155.764 25.824 154.452 26.216 152.884 26.216C151.62 26.216 150.5 25.936 149.524 25.376C148.548 24.8 147.78 24 147.22 22.976C146.676 21.936 146.404 20.736 146.404 19.376ZM168.546 12.56C169.554 12.56 170.45 12.776 171.234 13.208C172.034 13.64 172.658 14.28 173.106 15.128C173.57 15.976 173.802 17 173.802 18.2V26H171.09V18.608C171.09 17.424 170.794 16.52 170.202 15.896C169.61 15.256 168.802 14.936 167.778 14.936C166.754 14.936 165.938 15.256 165.33 15.896C164.738 16.52 164.442 17.424 164.442 18.608V26H161.706V8.24H164.442V14.312C164.906 13.752 165.49 13.32 166.194 13.016C166.914 12.712 167.698 12.56 168.546 12.56Z" fill="white" fill-opacity="0.9"/>
<path d="M103.108 46.454V47.786H99.688V59H98.05V47.786H94.612V46.454H103.108ZM106.762 50.738C107.05 50.174 107.458 49.736 107.986 49.424C108.526 49.112 109.18 48.956 109.948 48.956V50.648H109.516C107.68 50.648 106.762 51.644 106.762 53.636V59H105.124V49.136H106.762V50.738ZM112.685 47.534C112.373 47.534 112.109 47.426 111.893 47.21C111.677 46.994 111.569 46.73 111.569 46.418C111.569 46.106 111.677 45.842 111.893 45.626C112.109 45.41 112.373 45.302 112.685 45.302C112.985 45.302 113.237 45.41 113.441 45.626C113.657 45.842 113.765 46.106 113.765 46.418C113.765 46.73 113.657 46.994 113.441 47.21C113.237 47.426 112.985 47.534 112.685 47.534ZM113.477 49.136V59H111.839V49.136H113.477ZM115.657 54.032C115.657 53.024 115.861 52.142 116.269 51.386C116.677 50.618 117.235 50.024 117.943 49.604C118.663 49.184 119.461 48.974 120.337 48.974C121.201 48.974 121.951 49.16 122.587 49.532C123.223 49.904 123.697 50.372 124.009 50.936V49.136H125.665V59H124.009V57.164C123.685 57.74 123.199 58.22 122.551 58.604C121.915 58.976 121.171 59.162 120.319 59.162C119.443 59.162 118.651 58.946 117.943 58.514C117.235 58.082 116.677 57.476 116.269 56.696C115.861 55.916 115.657 55.028 115.657 54.032ZM124.009 54.05C124.009 53.306 123.859 52.658 123.559 52.106C123.259 51.554 122.851 51.134 122.335 50.846C121.831 50.546 121.273 50.396 120.661 50.396C120.049 50.396 119.491 50.54 118.987 50.828C118.483 51.116 118.081 51.536 117.781 52.088C117.481 52.64 117.331 53.288 117.331 54.032C117.331 54.788 117.481 55.448 117.781 56.012C118.081 56.564 118.483 56.99 118.987 57.29C119.491 57.578 120.049 57.722 120.661 57.722C121.273 57.722 121.831 57.578 122.335 57.29C122.851 56.99 123.259 56.564 123.559 56.012C123.859 55.448 124.009 54.794 124.009 54.05ZM130.071 45.68V59H128.433V45.68H130.071ZM147.291 59L145.653 57.344C145.041 57.98 144.387 58.454 143.691 58.766C142.995 59.066 142.209 59.216 141.333 59.216C140.469 59.216 139.701 59.06 139.029 58.748C138.369 58.436 137.853 57.992 137.481 57.416C137.121 56.84 136.941 56.168 136.941 55.4C136.941 54.524 137.187 53.756 137.679 53.096C138.183 52.424 138.921 51.896 139.893 51.512C139.509 51.056 139.233 50.636 139.065 50.252C138.897 49.868 138.813 49.448 138.813 48.992C138.813 48.464 138.945 47.99 139.209 47.57C139.485 47.138 139.875 46.802 140.379 46.562C140.883 46.322 141.465 46.202 142.125 46.202C142.773 46.202 143.337 46.328 143.817 46.58C144.297 46.832 144.657 47.186 144.897 47.642C145.137 48.086 145.245 48.584 145.221 49.136H143.583C143.595 48.644 143.457 48.26 143.169 47.984C142.881 47.696 142.509 47.552 142.053 47.552C141.573 47.552 141.183 47.69 140.883 47.966C140.595 48.23 140.451 48.572 140.451 48.992C140.451 49.352 140.547 49.7 140.739 50.036C140.943 50.372 141.279 50.786 141.747 51.278L145.491 55.04L145.815 54.536L147.039 52.484H148.803L147.327 55.04C147.123 55.4 146.883 55.778 146.607 56.174L149.433 59H147.291ZM141.333 57.812C141.981 57.812 142.563 57.686 143.079 57.434C143.607 57.182 144.105 56.792 144.573 56.264L140.883 52.556C139.347 53.144 138.579 54.074 138.579 55.346C138.579 56.054 138.831 56.642 139.335 57.11C139.851 57.578 140.517 57.812 141.333 57.812ZM164.155 50.126C164.155 51.17 163.795 52.04 163.075 52.736C162.367 53.42 161.281 53.762 159.817 53.762H157.405V59H155.767V46.454H159.817C161.233 46.454 162.307 46.796 163.039 47.48C163.783 48.164 164.155 49.046 164.155 50.126ZM159.817 52.412C160.729 52.412 161.401 52.214 161.833 51.818C162.265 51.422 162.481 50.858 162.481 50.126C162.481 48.578 161.593 47.804 159.817 47.804H157.405V52.412H159.817ZM165.579 54.032C165.579 53.024 165.783 52.142 166.191 51.386C166.599 50.618 167.157 50.024 167.865 49.604C168.585 49.184 169.383 48.974 170.259 48.974C171.123 48.974 171.873 49.16 172.509 49.532C173.145 49.904 173.619 50.372 173.931 50.936V49.136H175.587V59H173.931V57.164C173.607 57.74 173.121 58.22 172.473 58.604C171.837 58.976 171.093 59.162 170.241 59.162C169.365 59.162 168.573 58.946 167.865 58.514C167.157 58.082 166.599 57.476 166.191 56.696C165.783 55.916 165.579 55.028 165.579 54.032ZM173.931 54.05C173.931 53.306 173.781 52.658 173.481 52.106C173.181 51.554 172.773 51.134 172.257 50.846C171.753 50.546 171.195 50.396 170.583 50.396C169.971 50.396 169.413 50.54 168.909 50.828C168.405 51.116 168.003 51.536 167.703 52.088C167.403 52.64 167.253 53.288 167.253 54.032C167.253 54.788 167.403 55.448 167.703 56.012C168.003 56.564 168.405 56.99 168.909 57.29C169.413 57.578 169.971 57.722 170.583 57.722C171.195 57.722 171.753 57.578 172.257 57.29C172.773 56.99 173.181 56.564 173.481 56.012C173.781 55.448 173.931 54.794 173.931 54.05ZM179.201 47.534C178.889 47.534 178.625 47.426 178.409 47.21C178.193 46.994 178.085 46.73 178.085 46.418C178.085 46.106 178.193 45.842 178.409 45.626C178.625 45.41 178.889 45.302 179.201 45.302C179.501 45.302 179.753 45.41 179.957 45.626C180.173 45.842 180.281 46.106 180.281 46.418C180.281 46.73 180.173 46.994 179.957 47.21C179.753 47.426 179.501 47.534 179.201 47.534ZM179.993 49.136V59H178.355V49.136H179.993ZM182.172 54.032C182.172 53.024 182.376 52.142 182.784 51.386C183.192 50.618 183.75 50.024 184.458 49.604C185.178 49.184 185.982 48.974 186.87 48.974C187.638 48.974 188.352 49.154 189.012 49.514C189.672 49.862 190.176 50.324 190.524 50.9V45.68H192.18V59H190.524V57.146C190.2 57.734 189.72 58.22 189.084 58.604C188.448 58.976 187.704 59.162 186.852 59.162C185.976 59.162 185.178 58.946 184.458 58.514C183.75 58.082 183.192 57.476 182.784 56.696C182.376 55.916 182.172 55.028 182.172 54.032ZM190.524 54.05C190.524 53.306 190.374 52.658 190.074 52.106C189.774 51.554 189.366 51.134 188.85 50.846C188.346 50.546 187.788 50.396 187.176 50.396C186.564 50.396 186.006 50.54 185.502 50.828C184.998 51.116 184.596 51.536 184.296 52.088C183.996 52.64 183.846 53.288 183.846 54.032C183.846 54.788 183.996 55.448 184.296 56.012C184.596 56.564 184.998 56.99 185.502 57.29C186.006 57.578 186.564 57.722 187.176 57.722C187.788 57.722 188.346 57.578 188.85 57.29C189.366 56.99 189.774 56.564 190.074 56.012C190.374 55.448 190.524 54.794 190.524 54.05Z" fill="#FFA537"/>
<defs>
<clipPath id="clip0_17_164">
<rect width="64" height="56.95" fill="white" transform="translate(0 5)"/>
</clipPath>
</defs>
</svg>
